<?xml version="1.0" encoding="UTF-8" standalone="no"?>
<!-- Created with Inkscape (http://www.inkscape.org/) -->
<svg
   xmlns:dc="http://purl.org/dc/elements/1.1/"
   xmlns:cc="http://creativecommons.org/ns#"
   xmlns:rdf="http://www.w3.org/1999/02/22-rdf-syntax-ns#"
   xmlns:svg="http://www.w3.org/2000/svg"
   xmlns="http://www.w3.org/2000/svg"
   xmlns:sodipodi="http://sodipodi.sourceforge.net/DTD/sodipodi-0.dtd"
   xmlns:inkscape="http://www.inkscape.org/namespaces/inkscape"
   viewBox="0 0 173.88663 128.40245"
   version="1.1"
   id="svg8"
   inkscape:version="0.92.3 (3ce5693, 2018-03-11)">
  <defs
     id="defs2" />
  <sodipodi:namedview
     id="base"
     pagecolor="#ffffff"
     bordercolor="#666666"
     borderopacity="1.0"
     inkscape:pageopacity="0.0"
     inkscape:pageshadow="2"
     inkscape:zoom="0.35"
     inkscape:cx="-167.10964"
     inkscape:cy="-3.0639617"
     inkscape:document-units="mm"
     inkscape:current-layer="layer1"
     showgrid="false"
     inkscape:window-width="3706"
     inkscape:window-height="2063"
     inkscape:window-x="134"
     inkscape:window-y="41"
     inkscape:window-maximized="1"
     inkscape:showpageshadow="true"
     showborder="true"
     borderlayer="false"
     fit-margin-top="0"
     fit-margin-left="0"
     fit-margin-right="0"
     fit-margin-bottom="0" />
  <metadata
     id="metadata5">
    <rdf:RDF>
      <cc:Work
         rdf:about="">
        <dc:format>image/svg+xml</dc:format>
        <dc:type
           rdf:resource="http://purl.org/dc/dcmitype/StillImage" />
        <dc:title></dc:title>
      </cc:Work>
    </rdf:RDF>
  </metadata>
  <g
     inkscape:label="Layer 1"
     inkscape:groupmode="layer"
     id="layer1"
     transform="translate(-20.401926,-19.620204)">
    <g
       style="font-family:'Ruda', Helvetica, Arial, sans-serif"
       id="g3802"
       transform="matrix(0.26458333,0,0,0.26458333,3.7724943,6.6968)">
      <path
         id="path3713"
         d="m 235.494,316.728 1.208,3.693 -0.69,4.697 -3.02,3.12 4.14,10.847 -2.156,3.771 7.334,10.4 5.263,1.825 6.125,-1.673 1.812,2.509 7.161,4.168 8.542,0.227 5.263,2.796 6.557,0.452 5.608,-2.416 4.659,5.204 3.624,1.428 v 4.276 l 4.745,1.197 5.177,-2.246 9.835,-2.175 1.294,-5.494 3.797,-0.604 5.263,2.413 4.141,9.601 3.192,3.059 -2.933,2.084 3.623,6.01 1.122,9.876 -0.776,3.299 1.294,5.26 -6.644,11.9 -3.968,1.3 -6.299,-4.699 -2.243,3.76 -6.73,-4.484 -5.953,-9.601 -4.314,0.365 -5.694,3.134 -5.78,-2.696 -2.934,1.167 -1.64,3.421 -5.608,2.832 -2.933,0.363 -8.8,7.303 -2.244,3.025 -5.004,1.223 -8.11,-4.248 -5.694,-0.216 -4.4,-3.033 -7.507,2.456 -5.349,6.334 -3.365,0.646 0.69,-5.25 -2.329,-1.37 -9.06,3.458 h -6.47 l -6.47,-3.457 -1.381,2.45 -8.283,-4.688 -6.126,-0.145 -1.553,-2.966 -5.263,-2.248 -3.71,-6.328 -6.212,0.802 -3.537,-5.331 -3.882,-0.586 -3.106,-3.226 -4.314,-1.836 -0.69,-3.387 -4.918,-0.959 -5.609,5.007 -1.294,-2.943 -7.765,-3.91 -4.486,-4.96 h -3.451 l -4.055,-5.355 -3.797,1.266 -0.345,-8.518 -3.02,-3.982 1.726,-3.77 3.365,2.866 6.04,-4.603 -1.381,-5.838 -4.314,-1.825 -2.07,-3.126 -0.605,-6.816 2.416,-3.385 2.761,-1.311 6.126,0.308 1.122,-6.265 4.659,-8.02 7.16,2.81 10.095,0.078 5.78,-5.314 4.832,0.078 0.604,2.426 6.989,1.874 6.384,-0.39 10.095,-4.772 5.004,1.019 3.624,-1.176 2.674,-4.557 2.761,-1.498 20.793,-3.159 8.8,2.528 z"
         class="datamap-subunit"
         inkscape:connector-curvature="0"
         style="fill:#f5f5f5;stroke:#8d8d8d;stroke-width:0.5" />
      <path
         id="path3715"
         d="m 307.277,224.301 -3.451,3.285 v 7.135 l -2.243,2.394 -8.37,0.769 -5.09,2.896 -6.126,6.865 -5.176,7.737 -6.385,1.255 -1.725,9.239 1.725,9.15 -6.125,1.313 -5.177,2.619 -13.2,2.693 -5.005,4.797 2.675,7.514 6.816,3.937 2.674,5.916 -6.816,3.66 3.452,3.648 1.207,5.605 h -15.443 l -5.004,-2.444 -8.8,-2.528 -20.794,3.16 -2.76,1.497 -2.675,4.557 -3.624,1.176 -5.004,-1.019 -10.095,4.772 -6.384,0.39 -6.989,-1.874 -0.604,-2.426 -4.831,-0.078 -5.78,5.314 -10.095,-0.078 -7.161,-2.81 -4.66,8.02 -1.121,6.265 -6.126,-0.308 -2.76,1.31 -7.076,-3.704 -4.4,-10.568 -10.612,-2.11 -7.851,-2.82 -2.847,-3.93 0.862,-4.815 -1.984,-3.09 -7.42,-4.055 -2.243,-3.191 0.776,-7.218 -1.898,-4.275 -0.172,-5.918 -4.746,-2.116 -5.521,1.059 -1.467,-3.67 -0.518,-8.205 3.106,-2.062 0.345,-5.964 4.4,-1.163 5.263,-5.758 3.624,1.004 3.538,-2.763 4.055,4.768 7.678,-4.18 1.64,-4.958 2.588,-1.433 11.475,0.085 6.126,-6.859 6.816,-3.831 9.75,-3.42 -0.519,-9.038 2.934,-5.9 4.055,-1.22 -0.863,-4.809 -3.969,-9.694 0.345,-8.459 -3.364,-5.294 8.541,-1.622 9.49,-3.162 2.33,2.891 7.075,-1.625 -3.537,-4.35 5.953,-18.547 3.106,-7.647 8.283,3.832 8.196,-0.187 2.675,2.143 7.937,-5.413 -1.467,-11.503 2.502,-7.63 8.628,-2.015 1.898,-7.72 4.142,-2.233 7.506,-0.681 0.086,6.204 2.07,4.046 5.954,3.165 5.09,5.629 5.436,-0.57 8.11,5.688 1.812,5.839 4.314,5.518 1.898,6.13 -0.431,7.738 -3.365,5.212 1.121,6.719 7.765,3.34 13.2,0.54 8.284,1.35 12.596,9.122 7.334,0.89 5.694,15.943 z m 121.307,68.614 -3.796,3.78 -0.26,6.88 -6.729,-1.835 -1.812,6.847 0.432,5.776 4.486,2.443 -0.431,4.008 -5.09,0.862 -2.503,3.989 -3.969,-1.172 -5.521,-5.799 1.294,-2.281 -2.761,-11.562 -5.177,-5.91 -3.623,0.16 6.557,-2.085 4.314,-2.732 4.572,-0.805 0.518,-10.362 2.933,-7.598 2.071,-2.381 5.263,-0.823 1.726,5.334 -5.263,9.285 9.145,3.076 z m 65.053,20.185 -1.207,9.672 -8.542,5.076 -8.11,0.078 -5.35,4.819 -4.486,0.62 -5.263,2.864 -3.365,-0.232 -1.121,-2.4 1.121,-5.204 3.02,-5.23 -1.898,-7.853 0.604,-3.95 -1.294,-5.236 4.486,-9.268 -3.02,-5.312 v -3.395 l 4.142,-4.707 2.243,-11.538 4.055,-3.794 4.832,-0.744 3.796,-7.473 4.659,1 2.33,-2.418 4.4,0.334 7.506,-2.423 1.208,-3.604 1.294,5.192 -3.796,4.666 5.176,2.987 1.467,4.217 -1.812,5.183 -5.522,1.066 -0.431,3.518 -3.106,3.994 6.126,11.403 -3.796,7.85 0.258,3.187 -3.45,1.907 z m 1.985,93.126 2.416,2.836 1.121,5.87 -5.435,4.619 -1.812,4.818 3.106,3.727 0.172,7.425 2.416,0.925 -0.431,6.034 -1.553,3.89 0.259,3.599 -3.883,1.479 -3.882,-2.113 -5.954,4.504 -5.004,-0.843 -1.984,5.404 -3.537,-0.49 -2.675,-4 -5.004,0.632 3.969,-5.419 -1.38,-5.015 0.603,-4.11 -3.278,-1.277 -5.954,2.767 -1.553,2.196 -3.45,-2.692 -1.64,2.267 -3.365,-0.354 -1.812,-3.83 2.33,-5.55 -1.38,-3.998 -6.299,0.572 6.73,-5.515 -1.726,-11.461 -0.604,-7.334 2.761,-5.693 6.902,-2.71 5.177,0.147 -0.863,-3.45 7.938,0.22 7.333,2.204 3.797,3.223 4.055,-0.439 5.09,2.048 3.02,-3.732 2.502,1.099 -0.604,4.678 z m -31.06,110.822 -3.279,3.039 -3.192,8.548 h -1.467 l -7.592,5.231 -9.405,-3.419 -0.69,-8.742 7.334,-7.362 9.145,-1.692 8.283,0.88 z"
         class="datamap-subunit"
         inkscape:connector-curvature="0"
         style="fill:#f5f5f5;stroke:#8d8d8d;stroke-width:0.5" />
      
      <!-- Chongqing -->
      <path
         id="path3717"
         d="m 449.29,372.95 6.04,5.076 -0.259,5.426 -6.126,3.11 -12.079,2.07 2.761,9.78 5.522,7.377 0.604,7.334 -1.898,3.831 -3.796,-0.577 -4.66,-10.297 -5.435,-0.582 -5.263,3.927 -4.831,0.435 -1.294,3.552 -3.797,-1.158 -1.208,-3.483 -5.608,-1.89 -1.035,-3.133 -3.882,-3.725 4.572,-3.663 -1.639,-3.453 2.588,-3.611 9.836,4.714 h 3.451 l 4.918,-7.448 4.659,-2.74 1.38,-4.604 4.832,-6.867 -2.588,-2.322 2.674,-2.854 5.78,3.228 3.02,2.996 z"
         class="datamap-subunit"
         inkscape:connector-curvature="0"
         style="fill:#f5f5f5;stroke:#8d8d8d;stroke-width:0.5" />
      
      <!-- Hubei -->
      <path
         id="path3719"
         d="m 511.41,376.983 6.903,5.727 -2.675,3.483 1.898,2.217 2.157,8.977 -2.76,0.66 -4.314,-1.614 -1.38,2.639 -5.782,3.217 -8.11,2.261 -1.725,1.676 -3.365,-2.842 0.604,-4.678 -2.502,-1.1 -3.02,3.733 -5.09,-2.048 -4.055,0.44 -3.797,-3.224 -7.333,-2.203 -7.938,-0.22 0.863,3.45 -5.177,-0.147 -6.902,2.71 -2.76,5.692 -5.523,-7.376 -2.76,-9.781 12.078,-2.07 6.126,-3.11 0.259,-5.426 -6.04,-5.076 0.863,-4.047 -1.984,-3.835 1.64,-2.942 4.14,0.529 0.863,-3.63 -3.882,-1.211 -0.863,-4.254 6.126,1.37 8.024,-1.446 5.694,7.509 8.283,4.225 10.094,-0.753 5.695,3.687 1.207,3.226 3.106,0.15 4.228,3.59 z"
         class="datamap-subunit"
         inkscape:connector-curvature="0"
         style="fill:#f5f5f5;stroke:#8d8d8d;stroke-width:0.5" />
      
      <!-- Tianjin -->
      <path
         id="path3721"
         d="m 539.71,274.206 -3.106,1.723 -1.898,6.455 -2.934,0.895 -5.694,-3.178 1.64,-4.336 -1.036,-6.912 0.949,-1.156 2.588,0.909 1.208,-6.631 1.294,-2.332 2.934,9.54 2.588,0.083 z"
         class="datamap-subunit"
         inkscape:connector-curvature="0"
         style="fill:#f5f5f5;stroke:#8d8d8d;stroke-width:0.5" />
      
      <!-- Jilin -->
      <path
         id="path3723"
         d="m 681.982,213.322 -2.847,9.072 -7.765,2.08 -4.141,-4.166 -1.64,7.623 -4.055,0.345 -4.4,6.017 h -7.247 l -2.416,2.31 2.675,4.773 -6.989,1.613 -3.796,-1.019 -4.055,-4.172 -3.106,1.79 -1.64,4.25 -4.917,6.758 -3.279,0.589 0.518,-5.4 -4.745,-6.367 1.811,-6.669 -4.055,-5.163 -3.365,-9.02 -3.278,3.828 -2.33,-5.66 -6.125,-1.66 -6.557,-17.585 -7.593,4.629 -3.624,-7.31 -0.258,-6.38 2.415,-2.348 -4.055,-6.444 1.553,-4.201 4.487,0.457 7.937,-4.311 8.542,-1.105 0.172,5.508 4.487,7.47 10.526,0.815 8.369,3.978 4.314,-1.625 4.4,1.806 0.776,7.721 3.624,-0.447 5.09,8.898 2.071,-4.26 4.228,1.778 4.745,9.888 3.624,-2.99 5.78,-1.676 7.161,1.852 5.35,4.393 z"
         class="datamap-subunit"
         inkscape:connector-curvature="0"
         style="fill:#f5f5f5;stroke:#8d8d8d;stroke-width:0.5" />

      <!-- Shuanghai -->
      <path
         id="path3725"
         d="m 575.515,376.088 4.142,2.609 2.674,4.68 -7.506,2.742 -3.969,-4.003 z"
         class="datamap-subunit"
         inkscape:connector-curvature="0"
         style="fill:#f5f5f5;stroke:#8d8d8d;stroke-width:0.5" />
      
      <!-- Shandong -->
      <path
         id="path3727"
         d="m 553.428,330.027 -4.486,0.467 -1.553,4.343 -7.161,0.696 -6.299,2.318 -3.537,-1.158 -3.365,-5.112 -3.883,0.776 -0.949,3.33 -2.415,0.928 -6.557,-0.077 -3.883,-4.724 -3.71,-1.01 2.502,-4.827 4.66,-4.458 -0.432,-5.815 -1.985,-4.185 4.142,-4.6 3.968,-7.258 4.142,-1.682 4.141,-4.903 6.816,-0.242 4.314,-5.657 6.816,2.348 3.969,-0.647 4.314,5.165 -2.848,2.17 -0.258,4.248 3.537,2.078 5.177,-0.08 0.863,-2.638 9.576,-6.664 9.146,5.543 10.785,0.32 -3.02,7.82 -3.02,-2.228 -9.404,4.292 -4.4,2.852 -0.518,4.105 -3.71,1.339 -7.592,6.12 z"
         class="datamap-subunit"
         inkscape:connector-curvature="0"
         style="fill:#f5f5f5;stroke:#8d8d8d;stroke-width:0.5" />
      
      <!-- Anhui -->
      <path
         id="path3729"
         d="m 557.138,380.63 -0.604,3.119 -3.624,7.243 -3.796,-0.295 0.173,4.195 -1.898,3.154 -5.867,3.95 -5.004,-1.827 -6.299,-4.396 -10.526,1.614 -2.157,-8.977 -1.898,-2.217 2.675,-3.483 -6.902,-5.727 1.725,-4.033 3.883,-0.674 v -7.284 l -7.42,-2.866 -0.173,-3.327 4.314,-14.484 3.883,-0.307 1.984,3.601 5.436,-2.987 -5.263,-8.007 2.415,-0.927 6.212,3.243 0.777,3.08 5.09,1.383 2.675,4.215 4.573,0.536 -2.675,5.796 3.106,0.684 1.64,5.46 3.796,0.227 -0.518,3.625 -3.451,6.391 5.349,3.968 -1.208,4.103 4.573,0.223 z"
         class="datamap-subunit"
         inkscape:connector-curvature="0"
         style="fill:#f5f5f5;stroke:#8d8d8d;stroke-width:0.5" />
      
      <!-- Beijing -->
      <path
         id="path3731"
         d="m 532.721,259.643 -1.294,2.332 -4.4,0.748 0.604,4.974 -0.95,1.156 -5.176,1.98 -5.867,-0.742 -3.192,-1.898 -0.518,-4.473 5.522,-4.077 -2.243,-4.01 8.024,-3.271 1.294,-3.114 6.47,6.552 z"
         class="datamap-subunit"
         inkscape:connector-curvature="0"
         style="fill:#f5f5f5;stroke:#8d8d8d;stroke-width:0.5" />

      <!-- Hebei -->
      <path
         id="path3733"
         d="m 527.63,267.697 -0.603,-4.974 4.4,-0.748 -1.208,6.63 z m 25.28,-22.42 -4.141,6.413 5.09,4.11 5.695,7.67 -5.522,3.813 -0.345,3.88 -3.192,3.371 -7.334,2.215 -3.451,-2.543 -1.467,-4.94 -2.588,-0.082 -2.934,-9.54 -1.725,-3.844 -6.471,-6.552 -1.294,3.114 -8.024,3.27 2.243,4.011 -5.522,4.077 0.518,4.473 3.192,1.898 5.867,0.742 5.177,-1.98 1.035,6.912 -1.64,4.336 5.695,3.178 2.934,-0.895 3.192,4.793 -4.314,5.657 -6.816,0.242 -4.141,4.903 -4.142,1.682 -3.968,7.258 -4.142,4.6 1.985,4.185 -9.663,0.315 -9.06,-2.919 -2.847,-5.148 3.451,-1.907 -0.258,-3.187 3.796,-7.85 -6.126,-11.403 3.106,-3.994 0.431,-3.518 5.522,-1.066 1.812,-5.183 -1.467,-4.217 -5.176,-2.987 3.796,-4.666 -1.294,-5.192 -3.02,-4.968 0.518,-4.57 6.643,-10.323 3.279,-0.257 0.431,7.776 10.353,-4.607 10.785,-1.283 0.259,-5.498 9.836,-2.502 1.984,4.911 3.192,2.403 -1.38,4.787 3.537,5.44 z"
         class="datamap-subunit"
         inkscape:connector-curvature="0"
         style="fill:#f5f5f5;stroke:#8d8d8d;stroke-width:0.5" />
      
      <!-- Henan -->
      <path
         id="path3735"
         d="m 512.36,315.704 0.431,5.815 -4.659,4.458 -2.502,4.827 3.71,1.01 3.883,4.724 6.557,0.077 5.263,8.007 -5.436,2.987 -1.984,-3.6 -3.883,0.306 -4.314,14.484 0.173,3.327 7.42,2.866 v 7.284 l -3.883,0.674 -1.725,4.033 -8.887,-1.865 -4.228,-3.59 -3.106,-0.15 -1.207,-3.226 -5.695,-3.687 -10.094,0.753 -8.283,-4.225 -5.694,-7.509 -0.345,-4.498 -3.797,-3.29 -2.76,-9.7 3.364,0.233 5.263,-2.864 4.487,-0.62 5.349,-4.819 8.11,-0.078 8.542,-5.076 1.207,-9.672 9.06,2.919 z"
         class="datamap-subunit"
         inkscape:connector-curvature="0"
         style="fill:#f5f5f5;stroke:#8d8d8d;stroke-width:0.5" />
      
      <!-- Shannxi -->
      <path
         id="path3737"
         d="m 465.597,271.904 -2.243,11.538 -4.142,4.707 v 3.395 l 3.02,5.312 -4.486,9.268 1.294,5.236 -0.604,3.95 1.898,7.854 -3.02,5.23 -1.121,5.204 1.121,2.399 2.761,9.698 3.797,3.29 0.345,4.5 -8.024,1.444 -6.126,-1.369 0.863,4.254 3.882,1.212 -0.862,3.629 -4.142,-0.529 -1.64,2.942 1.985,3.835 -0.862,4.047 -2.761,0.449 -3.02,-2.996 -5.78,-3.228 -5.954,0.451 -3.451,-3.01 -5.953,-1.508 -3.71,-2.871 -5.695,1.814 -1.38,-3.555 -5.435,2.043 -0.777,-2.422 4.228,-1.062 -0.69,-6.542 6.039,-1.527 0.345,-4.134 2.502,-4.15 -3.624,-4.319 2.848,-6.511 3.537,-0.078 3.02,2.485 6.816,-1.009 -1.726,-3.188 9.146,-0.78 -0.346,-7.665 2.33,-6.616 -6.989,-3.086 -1.811,-2.221 -6.299,-2.067 -0.172,-2.071 0.259,-6.88 3.796,-3.781 3.623,2.897 8.11,-0.482 3.02,-5.805 -0.517,-3.24 7.333,-9.209 5.522,-3.856 4.918,0.575 z"
         class="datamap-subunit"
         inkscape:connector-curvature="0"
         style="fill:#f5f5f5;stroke:#8d8d8d;stroke-width:0.5" />
      
      <!-- Jiangsu -->
      <path
         id="path3741"
         d="m 575.515,376.088 -4.659,6.028 -3.365,1.929 -5.004,-1.112 -2.416,-2.748 -2.933,0.446 -5.004,-2.009 -4.573,-0.223 1.208,-4.103 -5.35,-3.968 3.452,-6.39 0.518,-3.626 -3.797,-0.227 -1.639,-5.46 -3.106,-0.684 2.675,-5.796 -4.573,-0.536 -2.675,-4.215 -5.09,-1.383 -0.777,-3.08 -6.212,-3.243 0.95,-3.331 3.882,-0.776 3.365,5.112 3.537,1.158 6.299,-2.318 7.16,-0.696 1.554,-4.343 4.486,-0.467 3.451,6.743 6.989,3.24 2.847,9.052 4.141,9.812 -0.863,1.892 5.695,3.624 0.776,3.537 4.228,2.327 z"
         class="datamap-subunit"
         inkscape:connector-curvature="0"
         style="fill:#f5f5f5;stroke:#8d8d8d;stroke-width:0.5" />
      
      <!-- Fujian -->
      <path
         id="path3745"
         d="m 565.593,428.884 -3.365,4.927 -5.953,0.57 2.847,3.842 -1.207,5.32 -6.385,6.92 -4.055,6.044 -7.42,5.81 0.863,1.607 -5.608,4.878 -4.573,2.85 -1.467,-1.53 -2.933,-10.952 -4.228,-2.032 -5.177,-0.911 2.675,-11.128 5.177,-7.586 -1.208,-2.277 1.812,-3.708 2.76,-0.5 2.503,-3.146 -0.604,-3.37 4.572,-4.89 3.106,0.433 5.867,-1.946 0.777,-2.382 3.365,0.072 2.07,9.933 3.452,0.502 3.796,-2.799 1.466,4.017 6.385,-0.645 z"
         class="datamap-subunit"
         inkscape:connector-curvature="0"
         style="fill:#f5f5f5;stroke:#8d8d8d;stroke-width:0.5" />
      
      <!-- Jiangxi -->
      <path
         id="path3747"
         d="m 541.522,401.997 -1.898,3.282 4.572,5.525 0.173,4.923 -0.777,2.382 -5.867,1.946 -3.106,-0.432 -4.572,4.89 0.604,3.369 -2.502,3.146 -2.761,0.5 -1.812,3.708 1.208,2.277 -5.177,7.586 -2.675,11.128 -1.984,4.483 -3.02,-2.87 -11.13,3.22 -1.207,-2.59 4.745,-6.53 -2.934,-1.267 -3.537,0.986 -1.984,-1.69 -0.26,-3.598 1.554,-3.89 0.431,-6.035 -2.416,-0.925 -0.172,-7.425 -3.106,-3.727 1.812,-4.818 5.435,-4.62 -1.121,-5.87 -2.416,-2.835 1.725,-1.676 8.11,-2.261 5.781,-3.217 1.38,-2.639 4.314,1.613 2.761,-0.66 10.526,-1.613 6.299,4.396 z"
         class="datamap-subunit"
         inkscape:connector-curvature="0"
         style="fill:#f5f5f5;stroke:#8d8d8d;stroke-width:0.5" />
      
      <!-- Guangxi -->
      <path
         id="path3751"
         d="m 475.174,458.4 0.604,4.337 -1.64,4.394 -4.658,4.59 -0.604,6.375 -1.553,2.901 -5.177,2.897 -4.4,7.767 -4.573,0.617 -2.243,3.082 -5.695,1.778 -1.725,-2.531 -6.471,-0.205 -4.918,1.984 -2.33,-1.984 -4.572,0.616 -3.969,-3.837 -3.278,-1.51 -1.122,-5.915 0.95,-3.449 -8.801,-0.552 -3.365,-2.905 3.451,-4.158 3.02,-0.208 0.259,-5.214 -10.526,-2.09 -0.777,-3.142 -6.384,-1.748 0.345,-1.96 2.07,1.33 5.09,-4.416 8.542,4.206 3.279,-3.925 7.42,-3.233 2.933,-3.45 1.726,2.887 4.659,1.83 4.659,-4.647 3.02,0.846 7.765,-3.317 1.725,-3.536 3.365,0.354 1.64,-2.267 3.45,2.692 1.553,-2.196 5.954,-2.767 3.278,1.278 -0.604,4.11 1.38,5.014 -3.968,5.419 5.004,-0.633 2.675,4 z"
         class="datamap-subunit"
         inkscape:connector-curvature="0"
         style="fill:#f5f5f5;stroke:#8d8d8d;stroke-width:0.5" />
      
      <!-- Guizhou -->
      <path
         id="path3753"
         d="m 445.753,413.123 1.726,11.461 -6.73,5.515 6.298,-0.572 1.38,3.999 -2.329,5.55 1.812,3.83 -1.725,3.535 -7.766,3.317 -3.02,-0.846 -4.658,4.646 -4.66,-1.829 -1.725,-2.888 -2.933,3.451 -7.42,3.233 -3.279,3.925 -8.541,-4.206 -5.09,4.416 -2.071,-1.33 2.07,-5.686 -4.572,-5.143 3.968,-8.71 -2.588,-3.84 -6.47,1.85 -1.468,-7.274 2.33,-2.863 2.76,1.432 11.044,-1.504 1.122,-3.947 3.71,0.503 7.506,-2.013 -1.898,-3.748 -5.35,-1.95 0.173,-3.328 7.42,0.145 3.797,1.158 1.294,-3.552 4.831,-0.435 5.263,-3.927 5.436,0.582 4.659,10.297 3.796,0.577 z"
         class="datamap-subunit"
         inkscape:connector-curvature="0"
         style="fill:#f5f5f5;stroke:#8d8d8d;stroke-width:0.5" />
      
      <!-- Yunnan -->
      <path
         id="path3755"
         d="m 403.218,422.645 -1.122,3.947 -11.043,1.504 -2.761,-1.432 -2.33,2.863 1.467,7.275 6.471,-1.85 2.588,3.84 -3.968,8.709 4.572,5.143 -2.07,5.686 -0.345,1.96 6.384,1.748 0.777,3.142 10.526,2.09 -0.26,5.214 -3.019,0.208 -3.451,4.158 -2.502,-2.285 -5.35,3.254 -0.69,2.833 -7.937,3.517 -3.538,-2.964 -3.796,0.069 -3.192,4.135 -5.522,-3.79 -2.588,3.033 -4.746,1.101 -3.192,2.063 2.502,4.873 -0.431,7.726 -4.745,-0.41 -1.985,-6.905 -4.918,3.49 -7.247,-2.942 0.172,-2.81 -6.815,-1.51 -0.26,-7.227 1.985,-4.005 -6.73,-1.384 -0.086,-4.991 -2.933,-5.496 -9.405,-0.627 -1.898,-7.268 1.812,-3.788 10.612,-9.868 0.777,-8.726 -1.208,-11.938 -3.969,0.502 -1.725,-6.98 3.968,-1.3 6.644,-11.9 0.604,9.587 5.004,-4.567 5.608,5.941 0.518,5.194 5.004,0.288 3.796,8.466 5.263,4.926 0.69,5.69 5.608,2.552 5.09,-3.546 1.64,1.703 3.624,-3.907 -1.726,-4.346 -0.086,-4.431 2.588,-1.576 4.055,-5.387 0.69,-4.614 3.279,-1.012 v -3.692 h 4.486 l 0.863,8.166 2.502,1.368 6.04,-2.666 z"
         class="datamap-subunit"
         inkscape:connector-curvature="0"
         style="fill:#f5f5f5;stroke:#8d8d8d;stroke-width:0.5" />
      
      <!-- Sichuan -->
      <path
         id="path3757"
         d="m 405.375,358.117 0.777,2.422 5.435,-2.043 1.38,3.555 5.695,-1.814 3.71,2.87 5.953,1.509 3.451,3.01 5.953,-0.451 -2.674,2.854 2.588,2.322 -4.832,6.867 -1.38,4.605 -4.659,2.74 -4.918,7.447 h -3.451 l -9.836,-4.714 -2.588,3.61 1.64,3.454 -4.573,3.663 3.882,3.725 1.035,3.133 5.608,1.89 1.208,3.483 -7.42,-0.145 -0.172,3.329 5.35,1.95 1.897,3.747 -7.506,2.013 -3.71,-0.503 -1.38,-4.176 -6.04,2.666 -2.502,-1.368 -0.863,-8.166 h -4.486 v 3.692 l -3.279,1.012 -0.69,4.614 -4.055,5.387 -2.588,1.576 0.086,4.431 1.726,4.346 -3.624,3.907 -1.64,-1.703 -5.09,3.546 -5.608,-2.552 -0.69,-5.69 -5.263,-4.926 -3.796,-8.466 -5.004,-0.288 -0.518,-5.194 -5.608,-5.94 -5.004,4.566 -0.604,-9.587 -1.294,-5.26 0.776,-3.3 -1.122,-9.875 -3.623,-6.01 2.933,-2.084 -3.192,-3.059 -4.141,-9.6 -5.263,-2.414 -3.106,-2.04 1.984,-7.967 -2.502,-6.951 6.557,-1.15 4.918,1.303 2.157,2.296 2.157,6.48 4.745,3.643 4.4,1.893 1.898,-3.637 8.542,4.393 5.177,0.076 0.172,-5.988 3.279,-1.064 3.278,-3.886 2.244,4.038 5.349,-3.199 -3.365,-6.195 6.385,-4.226 3.796,1.308 0.776,4.68 9.663,1.76 5.608,12.923 6.989,0.302 z"
         class="datamap-subunit"
         inkscape:connector-curvature="0"
         style="fill:#f5f5f5;stroke:#8d8d8d;stroke-width:0.5" />

      <!-- Qinghai -->
      <path
         id="path3759"
         d="m 365.428,350.131 -3.278,3.886 -3.279,1.064 -0.172,5.988 -5.177,-0.076 -8.542,-4.393 -1.898,3.637 -4.4,-1.893 -4.745,-3.643 -2.157,-6.48 -2.157,-2.296 -4.918,-1.303 -6.557,1.15 2.502,6.951 -1.984,7.968 3.106,2.04 -3.797,0.603 -1.294,5.494 -9.835,2.175 -5.177,2.246 -4.745,-1.197 v -4.276 l -3.624,-1.428 -4.66,-5.204 -5.607,2.416 -6.557,-0.452 -5.263,-2.796 -8.542,-0.227 -7.16,-4.168 -1.813,-2.509 -6.125,1.673 -5.263,-1.825 -7.334,-10.4 2.157,-3.77 -4.141,-10.848 3.02,-3.12 0.69,-4.697 -1.208,-3.693 h 15.443 l -1.207,-5.605 -3.452,-3.647 6.816,-3.661 -2.674,-5.916 -6.816,-3.937 -2.675,-7.514 5.004,-4.797 13.2,-2.693 5.178,-2.62 6.125,-1.311 6.471,-1.725 10.095,-0.575 5.694,2.382 3.192,-0.492 7.852,6.708 9.922,4.311 0.345,-10.937 4.141,0.492 7.765,4.583 8.628,-3.107 9.577,9.213 5.694,0.649 15.444,10.808 2.847,0.482 5.608,4.4 -1.035,2.791 3.365,6.192 2.156,8.827 -2.847,4.073 -4.227,1.328 -0.432,4.83 -2.847,1.476 -2.157,4.184 4.4,3.165 -4.659,4.079 -9.059,-4.156 -1.64,3.003 3.97,5.98 z"
         class="datamap-subunit"
         inkscape:connector-curvature="0"
         style="fill:#f5f5f5;stroke:#8d8d8d;stroke-width:0.5" />
      
      <!-- Gansu -->
      <path
         id="path3761"
         d="m 393.124,299.1 3.623,-0.16 5.177,5.91 2.76,11.563 -1.293,2.281 5.521,5.799 3.97,1.172 2.501,-3.99 5.09,-0.861 0.432,-4.008 -4.486,-2.443 -0.432,-5.776 1.812,-6.847 6.73,1.836 0.172,2.07 6.299,2.068 1.811,2.221 6.989,3.086 -2.33,6.616 0.346,7.666 -9.146,0.779 1.726,3.188 -6.816,1.01 -3.02,-2.486 -3.537,0.078 -2.848,6.511 3.624,4.32 -2.502,4.149 -0.345,4.134 -6.04,1.527 0.69,6.542 -4.227,1.062 -2.502,3.405 -6.989,-0.302 -5.608,-12.922 -9.663,-1.76 -0.776,-4.681 -3.796,-1.308 -6.385,4.226 3.365,6.195 -5.35,3.199 -2.243,-4.038 -6.73,-2.14 -3.968,-5.98 1.64,-3.003 9.058,4.156 4.66,-4.079 -4.4,-3.165 2.156,-4.184 2.847,-1.476 0.432,-4.83 4.227,-1.328 2.847,-4.073 -2.156,-8.827 -3.365,-6.192 1.035,-2.79 -5.608,-4.401 -2.847,-0.482 -15.444,-10.808 -5.694,-0.65 -9.577,-9.212 -8.628,3.107 -7.765,-4.583 -4.141,-0.492 -0.345,10.937 -9.922,-4.311 -7.852,-6.708 -3.192,0.492 -5.694,-2.382 -10.095,0.575 -6.47,1.725 -1.726,-9.151 1.725,-9.239 6.385,-1.255 5.176,-7.737 6.126,-6.865 5.09,-2.896 8.37,-0.769 2.243,-2.394 v -7.135 l 3.45,-3.285 8.888,-0.953 6.988,16.922 -1.984,2.974 7.16,7.94 -1.035,4.449 4.487,-0.335 5.435,-3.777 9.232,-0.925 1.985,4.283 -5.436,10.168 5.35,2.484 3.364,3.879 3.451,0.33 0.69,4.025 5.609,4.907 4.486,0.816 -0.086,-5.15 6.125,-2.46 6.212,1.641 3.365,-2.381 7.938,-2.058 2.157,4.85 -3.279,5.64 -4.831,3.417 -0.345,8.09 z"
         class="datamap-subunit"
         inkscape:connector-curvature="0"
         style="fill:#f5f5f5;stroke:#8d8d8d;stroke-width:0.5" />

      <!-- Neimenggu -->
      <path
         id="path3763"
         d="m 576.292,53.375 4.141,5.2 -6.73,7.684 9.232,5.324 3.365,-2.918 3.106,6.343 3.451,12.33 7.161,3.255 8.283,-1.626 11.734,-3.773 6.125,9.349 -2.674,6.84 -5.78,7.377 v 11.332 l -4.401,4.392 -3.451,9.867 -3.279,0.576 -10.87,11.356 -7.248,5.102 -1.553,2.821 8.11,8.871 -1.812,5.648 1.898,2.856 -7.937,4.311 -4.487,-0.457 -1.553,4.2 4.055,6.445 -2.415,2.348 0.258,6.38 3.624,7.31 7.593,-4.63 6.557,17.586 -0.863,4.016 -9.577,4.951 -2.675,-1.647 -4.4,1.907 -3.623,3.89 -3.797,-0.605 -3.623,3.446 -5.695,1.632 -3.968,5.22 -6.126,-8.487 -2.157,3.953 -1.38,11.928 -8.11,-1.186 -3.538,-5.44 1.38,-4.788 -3.192,-2.403 -1.984,-4.91 -9.836,2.501 -0.259,5.498 -10.785,1.283 -10.353,4.607 -0.431,-7.776 -3.279,0.257 -6.643,10.323 -0.518,4.57 3.02,4.968 -1.208,3.604 -7.506,2.423 -4.4,-0.334 -2.33,2.418 -4.66,-1 -3.795,7.473 -4.832,0.744 -4.055,3.794 -5.004,1.891 -4.918,-0.575 -5.522,3.856 -7.333,9.21 0.517,3.239 -3.02,5.805 -8.11,0.482 -3.623,-2.897 -3.624,-2.905 -9.145,-3.076 5.263,-9.285 -1.726,-5.334 -5.263,0.823 -2.07,2.381 -2.934,7.598 -0.518,10.362 -4.572,0.805 -4.314,2.732 -6.557,2.085 -9.922,-6.025 0.345,-8.09 4.831,-3.417 3.279,-5.64 -2.157,-4.849 -7.938,2.058 -3.365,2.381 -6.212,-1.641 -6.125,2.46 0.086,5.15 -4.486,-0.816 -5.609,-4.907 -0.69,-4.026 -3.45,-0.33 -3.366,-3.878 -5.349,-2.484 5.436,-10.168 -1.985,-4.283 -9.232,0.925 -5.435,3.777 -4.487,0.335 1.036,-4.448 -7.161,-7.941 1.984,-2.974 -6.988,-16.922 24.503,3.288 5.349,-1.642 18.98,3.11 3.193,4.044 11.13,2.573 6.902,3.59 8.456,-1.623 -0.087,2.9 5.608,1.022 1.898,-2.044 16.91,-7.878 15.186,-2.412 6.557,0.69 7.42,-0.69 9.922,-4.668 5.608,-7.66 7.161,-3.415 3.537,-4.399 -5.521,-7.616 3.71,-10.018 6.73,-1.26 2.156,2.249 10.958,2.781 4.831,-2.961 5.177,-6.858 11.82,-0.816 5.694,-4.09 4.314,-8.977 7.851,-0.92 10.785,-5.92 5.522,-0.465 9.404,2.504 2.157,-4.736 -2.847,-5.043 -11.648,-11.888 -8.627,-0.19 -4.573,5.117 -5.004,-3.503 -6.557,0.19 -4.142,2.557 -3.623,-6.74 12.51,-27.824 11.561,5.112 8.197,-6.297 7.506,-2.076 0.863,-9.764 4.745,-7.96 3.451,-9.37 7.679,-8.759 -5.608,-12.956 6.643,-7.624 z"
         class="datamap-subunit"
         inkscape:connector-curvature="0"
         style="fill:#f5f5f5;stroke:#8d8d8d;stroke-width:0.5" />

      <!-- Heilongjiang 18.2 years -->
      <path
         id="path3765"
         d="m 681.982,213.322 -3.623,0.263 -5.35,-4.393 -7.16,-1.852 -5.781,1.676 -3.624,2.99 -4.745,-9.888 -4.228,-1.778 -2.07,4.26 -5.091,-8.898 -3.624,0.447 -0.776,-7.721 -4.4,-1.806 -4.314,1.625 -8.37,-3.978 -10.525,-0.815 -4.487,-7.47 -0.172,-5.508 -8.542,1.105 -1.898,-2.856 1.812,-5.648 -8.11,-8.87 1.553,-2.822 7.247,-5.102 10.871,-11.356 3.279,-0.576 3.451,-9.867 4.4,-4.392 V 108.76 l 5.78,-7.377 2.675,-6.84 -6.125,-9.35 -11.734,3.774 -8.283,1.626 -7.16,-3.255 -3.452,-12.33 -3.106,-6.343 -3.365,2.918 -9.232,-5.324 6.73,-7.683 -4.141,-5.201 5.09,-2.133 18.809,-2.14 12.51,7.143 3.451,-0.956 6.471,4.555 6.643,9.968 1.122,7.161 4.141,8.22 1.036,7.63 6.988,14.249 -0.776,6.635 6.212,4.72 6.212,-1.08 6.988,4.31 2.243,-0.685 10.785,12.32 3.106,5.757 -1.725,2.672 3.882,6.928 14.495,-0.946 7.679,-5.886 13.977,-4.395 4.141,10.281 -6.643,7.723 -2.675,15.603 -2.33,1.838 -2.847,8.68 -2.415,0.999 -2.503,7.414 -10.87,-3.247 -9.491,8.452 2.07,9.435 z"
         class="datamap-subunit"
         inkscape:connector-curvature="0"
         style="fill:#08519c;stroke:#8d8d8d;stroke-width:0.5" />

      <!-- Liaoning 5.5 years -->
      <path
         id="path3739"
         d="m 622.364,251.185 -8.541,5.368 -8.542,9.074 -7.765,0.58 -11.82,6.108 -4.659,5.661 -7.075,3.023 -1.121,-2.45 6.298,-2.62 -2.588,-5.838 1.035,-4.878 2.33,-0.83 5.953,-8.164 -2.761,-3.437 -7.42,-2.776 -3.969,1.515 -5.867,9.039 -6.298,2.91 -5.695,-7.67 -5.09,-4.11 4.141,-6.412 1.38,-11.928 2.158,-3.953 6.126,8.487 3.968,-5.22 5.695,-1.632 3.623,-3.446 3.797,0.604 3.623,-3.889 4.4,-1.907 2.675,1.647 9.577,-4.951 0.863,-4.016 6.125,1.66 2.33,5.66 3.278,-3.827 3.365,9.02 4.055,5.162 -1.811,6.67 4.745,6.367 z"
         class="datamap-subunit"
         inkscape:connector-curvature="0"
         style="fill:#bcc6e2;stroke:#8d8d8d;stroke-width:0.5" />

      <!-- Zhejiang 1.2 years -->
      <path
         id="path3743"
         d="m 570.856,382.116 3.969,4.003 -3.537,2.291 4.572,2.287 6.471,6.176 -0.172,7.094 -3.02,2.768 -1.812,4.504 1.553,3.91 -5.867,1.661 -5.522,7.63 -1.898,4.444 -0.69,-2.077 -6.385,0.645 -1.466,-4.017 -3.796,2.799 -3.452,-0.502 -2.07,-9.933 -3.365,-0.072 -0.173,-4.923 -4.572,-5.525 1.898,-3.282 5.867,-3.95 1.898,-3.155 -0.173,-4.195 3.796,0.295 3.624,-7.243 0.604,-3.118 2.933,-0.446 2.416,2.748 5.004,1.112 z"
         class="datamap-subunit"
         inkscape:connector-curvature="0"
         style="fill:#ebf0f9;stroke:#8d8d8d;stroke-width:0.5" />
      
      <!-- Guangdong 4.7 years -->
      <path
         id="path3749"
         d="m 495.88,449.969 1.985,1.69 3.537,-0.986 2.934,1.268 -4.745,6.529 1.207,2.59 11.13,-3.22 3.02,2.87 1.984,-4.483 5.177,0.911 4.228,2.032 2.933,10.953 1.467,1.528 -1.553,-0.555 -5.78,8.451 -10.354,2.279 -8.973,-0.621 -7.938,3.515 -2.847,-2.963 -2.157,6.884 -5.004,0.893 -4.4,3.498 -6.298,-0.274 -3.969,3.012 -9.146,1.573 -5.608,3.481 -1.207,2.93 3.968,4.216 -2.76,2.58 -3.365,-0.34 -3.279,-7.409 1.208,-3.273 -0.345,-4.168 2.243,-3.082 4.573,-0.617 4.4,-7.767 5.177,-2.897 1.553,-2.901 0.604,-6.375 4.659,-4.59 1.639,-4.394 -0.604,-4.337 1.984,-5.404 5.004,0.843 5.954,-4.504 3.882,2.113 z"
         class="datamap-subunit"
         inkscape:connector-curvature="0"
         style="fill:#c6cbe0;stroke:#2196f3;stroke-width:1" />


<!--https://gka.github.io/palettes/#colors=#f5f5f5,#08519c|steps=18|bez=1|coL=1-->

      <text xmlns="http://www.w3.org/2000/svg" font-family='-apple-system, BlinkMacSystemFont, "Segoe UI", Roboto, Helvetica, Arial, sans-serif, "Apple Color Emoji", "Segoe UI Emoji", "Segoe UI Symbol"' font-size="14" letter-spacing="-.955" fill="cyan" transform="translate(511 1)">
         <tspan x="140" y="170">Yilan</tspan>
      </text>
      <text xmlns="http://www.w3.org/2000/svg" font-family='-apple-system, BlinkMacSystemFont, "Segoe UI", Roboto, Helvetica, Arial, sans-serif, "Apple Color Emoji", "Segoe UI Emoji", "Segoe UI Symbol"' font-size="14" letter-spacing="-.955" fill="black" transform="translate(511 1)">
         <tspan x="65" y="280">Dalian</tspan>
      </text>
      <text xmlns="http://www.w3.org/2000/svg" font-family='-apple-system, BlinkMacSystemFont, "Segoe UI", Roboto, Helvetica, Arial, sans-serif, "Apple Color Emoji", "Segoe UI Emoji", "Segoe UI Symbol"' font-size="14" letter-spacing="-.955" fill="black" transform="translate(511 1)">
         <tspan x="55" y="395">Hangzhou</tspan>
      </text>
      <text xmlns="http://www.w3.org/2000/svg" font-family='-apple-system, BlinkMacSystemFont, "Segoe UI", Roboto, Helvetica, Arial, sans-serif, "Apple Color Emoji", "Segoe UI Emoji", "Segoe UI Symbol"' font-size="14" letter-spacing="-.955" fill="black" transform="translate(511 1)">
         <tspan x="-30" y="480">Guangzhou</tspan>
      </text>
    </g>
  </g>
</svg>
