<svg xmlns="http://www.w3.org/2000/svg" viewBox="0 0 710 459" fill="none" stroke="#000" stroke-linecap="square" stroke-miterlimit="10" color-interpolation="auto" font-family="'Arial'" font-size="12"><defs><clipPath id="a"><path d="M0 0h3130v1659H0V0z"/></clipPath><clipPath id="b"><path d="M0 0v559h810V0z"/></clipPath><clipPath id="c"><path d="M0 0v54h100V0z"/></clipPath><clipPath id="d"><path d="M0 0v229h342V0z"/></clipPath><clipPath id="e"><path d="M0 0v30h94V0z"/></clipPath><clipPath id="f"><path d="M0 0v30h31V0z"/></clipPath><clipPath id="g"><path d="M0 0v30h70V0z"/></clipPath><clipPath id="h"><path d="M0 0v30h116V0z"/></clipPath><clipPath id="i"><path d="M0 0v30h128V0z"/></clipPath><clipPath id="j"><path d="M0 0v229h277V0z"/></clipPath><clipPath id="k"><path d="M0 0v30h61V0z"/></clipPath><clipPath id="l"><path d="M0 0v30h93V0z"/></clipPath><clipPath id="m"><path d="M0 0v30h69V0z"/></clipPath><clipPath id="n"><path d="M0 0v30h96V0z"/></clipPath><clipPath id="o"><path d="M0 0v30h84V0z"/></clipPath><clipPath id="p"><path d="M0 0v295h400V0z"/></clipPath><clipPath id="q"><path d="M0 0v30h73V0z"/></clipPath><clipPath id="r"><path d="M0 0v30h207V0z"/></clipPath><clipPath id="s"><path d="M0 0v196h276V0z"/></clipPath><clipPath id="t"><path d="M0 0v30h83V0z"/></clipPath><clipPath id="u"><path d="M0 0v30h79V0z"/></clipPath><clipPath id="v"><path d="M0 0v30h67V0z"/></clipPath><clipPath id="w"><path d="M0 0v30h71V0z"/></clipPath><clipPath id="x"><path d="M0 0v30h103V0z"/></clipPath><clipPath id="y"><path d="M0 0v295h370V0z"/></clipPath><clipPath id="z"><path d="M0 0v30h105V0z"/></clipPath><clipPath id="A"><path d="M0 0v30h145V0z"/></clipPath><clipPath id="B"><path d="M0 0v30h90V0z"/></clipPath><clipPath id="C"><path d="M0 0v30h119V0z"/></clipPath><clipPath id="D"><path d="M0 0v30h125V0z"/></clipPath><clipPath id="E"><path d="M0 0v163h327V0z"/></clipPath><clipPath id="F"><path d="M0 0v163h272V0z"/></clipPath><clipPath id="G"><path d="M0 0v132h253V0z"/></clipPath><clipPath id="H"><path d="M0 0v30h64V0z"/></clipPath><clipPath id="I"><path d="M0 0v132h308V0z"/></clipPath><clipPath id="J"><path d="M0 0v30h72V0z"/></clipPath></defs><path stroke="none" d="M0 0h3130v1659H0z" clip-path="url(#a)" font-family="'Lucida Grande'" font-size="13" shape-rendering="crispEdges" text-rendering="optimizeSpeed" transform="translate(-1210 -600)"/><g fill="none" stroke="#48B04B" stroke-linecap="butt" stroke-width="6" font-family="'Lucida Grande'" font-size="13" text-rendering="optimizeSpeed"><path d="M438 254s32-147 52-147" clip-path="url(#b)" transform="translate(-50 -50)"/><path stroke="#35BAB1" d="M442 254s28-112 48-112" clip-path="url(#b)" transform="translate(-50 -50)"/><path stroke="#259BBA" d="M451 257s19-66 39-66" clip-path="url(#b)" transform="translate(-50 -50)"/><path stroke="#EE685E" d="M467 271s3-14 23-14" clip-path="url(#b)" transform="translate(-50 -50)"/><path stroke="#EEA600" d="M446 300s24 89 44 89" clip-path="url(#b)" transform="translate(-50 -50)"/><path stroke="#FFE52A" d="M395 255s-26-97-46-97" clip-path="url(#b)" transform="translate(-50 -50)"/><path stroke="#2E9632" d="M378 292s-9 31-29 31" clip-path="url(#b)" transform="translate(-50 -50)"/><path stroke="#1CA197" d="M402 303s-33 152-53 152" clip-path="url(#b)" transform="translate(-50 -50)"/></g><ellipse cx="50" cy="27" fill="#fff" stroke="none" stroke-linecap="butt" stroke-width="6" clip-path="url(#c)" font-family="'Helvetica Neue'" font-size="18" rx="49" ry="26" text-rendering="optimizeSpeed" transform="translate(320 201)"/><ellipse cx="49.5" cy="26.5" fill="none" stroke="gray" clip-path="url(#c)" font-family="'Helvetica Neue'" font-size="18" rx="49.5" ry="26.5" text-rendering="optimizeSpeed" transform="translate(320 201)"/><text x="11" y="34" fill="#526337" stroke="none" clip-path="url(#c)" font-family="'Helvetica Neue'" font-size="18" shape-rendering="crispEdges" text-rendering="geometricPrecision" transform="translate(320 201)">MyTracks</text><g fill="none" stroke="#1CA197" stroke-linecap="butt" stroke-width="5" font-family="'Lucida Grande'" font-size="13" text-rendering="optimizeSpeed"><path d="M198 125c-12 0-1-48-21-48M198 125c-12 0-1-15-21-15M198 125c-12 0-1 18-21 18M198 125c-12 0-1 51-21 51" clip-path="url(#d)" transform="translate(8 280)"/></g><path fill="none" stroke="#1CA197" stroke-width="6" d="M0 26h94" clip-path="url(#e)" font-family="'Helvetica Neue'" font-size="21" text-rendering="optimizeSpeed" transform="translate(206 379)"/><text x="6" y="22" fill="#46443C" stroke="none" stroke-width="6" clip-path="url(#e)" font-family="'Helvetica Neue'" font-size="21" shape-rendering="crispEdges" text-rendering="geometricPrecision" transform="translate(206 379)">Learning</text><path fill="none" stroke="#1CA197" stroke-width="5" d="M0 27h31" clip-path="url(#f)" font-family="'Helvetica Neue'" font-size="21" text-rendering="optimizeSpeed" transform="translate(155 429)"/><text x="6" y="22" fill="#46443C" stroke="none" stroke-width="5" clip-path="url(#f)" font-family="'Helvetica Neue'" font-size="21" shape-rendering="crispEdges" text-rendering="geometricPrecision" transform="translate(155 429)">iA</text><path fill="none" stroke="#1CA197" stroke-width="5" d="M0 27h70" clip-path="url(#g)" font-family="'Helvetica Neue'" font-size="21" text-rendering="optimizeSpeed" transform="translate(116 396)"/><text x="6" y="22" fill="#46443C" stroke="none" stroke-width="5" clip-path="url(#g)" font-family="'Helvetica Neue'" font-size="21" shape-rendering="crispEdges" text-rendering="geometricPrecision" transform="translate(116 396)">Lynda</text><path fill="none" stroke="#1CA197" stroke-width="5" d="M0 27h116" clip-path="url(#h)" font-family="'Helvetica Neue'" font-size="21" text-rendering="optimizeSpeed" transform="translate(70 363)"/><text x="6" y="22" fill="#46443C" stroke="none" stroke-width="5" clip-path="url(#h)" font-family="'Helvetica Neue'" font-size="21" shape-rendering="crispEdges" text-rendering="geometricPrecision" transform="translate(70 363)">Goodreads</text><path fill="none" stroke="#1CA197" stroke-width="5" d="M0 27h128" clip-path="url(#i)" font-family="'Helvetica Neue'" font-size="21" text-rendering="optimizeSpeed" transform="translate(58 330)"/><text x="6" y="22" fill="#46443C" stroke="none" stroke-width="5" clip-path="url(#i)" font-family="'Helvetica Neue'" font-size="21" shape-rendering="crispEdges" text-rendering="geometricPrecision" transform="translate(58 330)">RescueTime</text><g fill="none" stroke="#2E9632" stroke-linecap="butt" stroke-width="5" font-family="'Lucida Grande'" font-size="13" text-rendering="optimizeSpeed"><path d="M166 125c-12 0-1-48-21-48M166 125c-12 0-1-15-21-15M166 125c-12 0-1 18-21 18M166 125c-12 0-1 51-21 51" clip-path="url(#j)" transform="translate(73 148)"/></g><path fill="none" stroke="#2E9632" stroke-width="6" d="M0 26h61" clip-path="url(#k)" font-family="'Helvetica Neue'" font-size="21" text-rendering="optimizeSpeed" transform="translate(239 247)"/><text x="6" y="22" fill="#46443C" stroke="none" stroke-width="6" clip-path="url(#k)" font-family="'Helvetica Neue'" font-size="21" shape-rendering="crispEdges" text-rendering="geometricPrecision" transform="translate(239 247)">Diary</text><path fill="none" stroke="#2E9632" stroke-width="5" d="M0 27h93" clip-path="url(#l)" font-family="'Helvetica Neue'" font-size="21" text-rendering="optimizeSpeed" transform="translate(126 297)"/><text x="6" y="22" fill="#46443C" stroke="none" stroke-width="5" clip-path="url(#l)" font-family="'Helvetica Neue'" font-size="21" shape-rendering="crispEdges" text-rendering="geometricPrecision" transform="translate(126 297)">iA Writer</text><path fill="none" stroke="#2E9632" stroke-width="5" d="M0 27h69" clip-path="url(#m)" font-family="'Helvetica Neue'" font-size="21" text-rendering="optimizeSpeed" transform="translate(150 264)"/><text x="6" y="22" fill="#46443C" stroke="none" stroke-width="5" clip-path="url(#m)" font-family="'Helvetica Neue'" font-size="21" shape-rendering="crispEdges" text-rendering="geometricPrecision" transform="translate(150 264)">Drafts</text><path fill="none" stroke="#2E9632" stroke-width="5" d="M0 27h96" clip-path="url(#n)" font-family="'Helvetica Neue'" font-size="21" text-rendering="optimizeSpeed" transform="translate(123 231)"/><text x="6" y="22" fill="#46443C" stroke="none" stroke-width="5" clip-path="url(#n)" font-family="'Helvetica Neue'" font-size="21" shape-rendering="crispEdges" text-rendering="geometricPrecision" transform="translate(123 231)">Evernote</text><path fill="none" stroke="#2E9632" stroke-width="5" d="M0 27h84" clip-path="url(#o)" font-family="'Helvetica Neue'" font-size="21" text-rendering="optimizeSpeed" transform="translate(135 198)"/><text x="6" y="22" fill="#46443C" stroke="none" stroke-width="5" clip-path="url(#o)" font-family="'Helvetica Neue'" font-size="21" shape-rendering="crispEdges" text-rendering="geometricPrecision" transform="translate(135 198)">Dayone</text><g fill="none" stroke="#FFE52A" stroke-linecap="butt" stroke-width="5" font-family="'Lucida Grande'" font-size="13" text-rendering="optimizeSpeed"><path d="M277 158c-12 0-1-81-21-81M277 158c-12 0-1-48-21-48M277 158c-12 0-1 18-21 18M277 158c-12 0-1 84-21 84" clip-path="url(#p)" transform="translate(-50 -50)"/></g><path fill="none" stroke="#FFE52A" stroke-width="6" d="M0 26h73" clip-path="url(#q)" font-family="'Helvetica Neue'" font-size="21" text-rendering="optimizeSpeed" transform="translate(227 82)"/><text x="6" y="22" fill="#46443C" stroke="none" stroke-width="6" clip-path="url(#q)" font-family="'Helvetica Neue'" font-size="21" shape-rendering="crispEdges" text-rendering="geometricPrecision" transform="translate(227 82)">Health</text><path fill="none" stroke="#FFE52A" stroke-width="5" d="M0 27h207" clip-path="url(#r)" font-family="'Helvetica Neue'" font-size="21" text-rendering="optimizeSpeed" transform="translate(0 165)"/><text x="6" y="22" fill="#46443C" stroke="none" stroke-width="5" clip-path="url(#r)" font-family="'Helvetica Neue'" font-size="21" shape-rendering="crispEdges" text-rendering="geometricPrecision" transform="translate(0 165)">Body measurements</text><g fill="none" stroke="#FFE52A" stroke-linecap="butt" stroke-width="4" font-family="'Lucida Grande'" font-size="13" text-rendering="optimizeSpeed"><path d="M153 110c-12 0-1-33-21-33M153 110h-21M153 110c-12 0-1 33-21 33" clip-path="url(#s)" transform="translate(-19 16)"/></g><path fill="none" stroke="#FFE52A" stroke-width="5" d="M0 27h73" clip-path="url(#q)" font-family="'Helvetica Neue'" font-size="21" text-rendering="optimizeSpeed" transform="translate(134 99)"/><text x="6" y="22" fill="#46443C" stroke="none" stroke-width="5" clip-path="url(#q)" font-family="'Helvetica Neue'" font-size="21" shape-rendering="crispEdges" text-rendering="geometricPrecision" transform="translate(134 99)">Drinks</text><path fill="none" stroke="#FFE52A" stroke-width="4" d="M0 27h83" clip-path="url(#t)" font-family="'Helvetica Neue'" font-size="21" text-rendering="optimizeSpeed" transform="translate(31 132)"/><text x="6" y="22" fill="#46443C" stroke="none" stroke-width="4" clip-path="url(#t)" font-family="'Helvetica Neue'" font-size="21" shape-rendering="crispEdges" text-rendering="geometricPrecision" transform="translate(31 132)">Alcohol</text><path fill="none" stroke="#FFE52A" stroke-width="4" d="M0 27h79" clip-path="url(#u)" font-family="'Helvetica Neue'" font-size="21" text-rendering="optimizeSpeed" transform="translate(35 99)"/><text x="6" y="22" fill="#46443C" stroke="none" stroke-width="4" clip-path="url(#u)" font-family="'Helvetica Neue'" font-size="21" shape-rendering="crispEdges" text-rendering="geometricPrecision" transform="translate(35 99)">Coffins</text><path fill="none" stroke="#FFE52A" stroke-width="4" d="M0 27h67" clip-path="url(#v)" font-family="'Helvetica Neue'" font-size="21" text-rendering="optimizeSpeed" transform="translate(47 66)"/><text x="6" y="22" fill="#46443C" stroke="none" stroke-width="4" clip-path="url(#v)" font-family="'Helvetica Neue'" font-size="21" shape-rendering="crispEdges" text-rendering="geometricPrecision" transform="translate(47 66)">Water</text><path fill="none" stroke="#FFE52A" stroke-width="5" d="M0 27h71" clip-path="url(#w)" font-family="'Helvetica Neue'" font-size="21" text-rendering="optimizeSpeed" transform="translate(136 33)"/><text x="6" y="22" fill="#46443C" stroke="none" stroke-width="5" clip-path="url(#w)" font-family="'Helvetica Neue'" font-size="21" shape-rendering="crispEdges" text-rendering="geometricPrecision" transform="translate(136 33)">Foods</text><path fill="none" stroke="#FFE52A" stroke-width="5" d="M0 27h103" clip-path="url(#x)" font-family="'Helvetica Neue'" font-size="21" text-rendering="optimizeSpeed" transform="translate(104)"/><text x="6" y="22" fill="#46443C" stroke="none" stroke-width="5" clip-path="url(#x)" font-family="'Helvetica Neue'" font-size="21" shape-rendering="crispEdges" text-rendering="geometricPrecision" transform="translate(104)">Workouts</text><g fill="none" stroke="#EEA600" stroke-linecap="butt" stroke-width="5" font-family="'Lucida Grande'" font-size="13" text-rendering="optimizeSpeed"><path d="M154 158c12 0 1-81 21-81M154 158c12 0 1-48 21-48M154 158c12 0 1-15 21-15M154 158c12 0 1 18 21 18M154 158c12 0 1 51 21 51M154 158c12 0 1 84 21 84" clip-path="url(#y)" transform="translate(390 181)"/></g><path fill="none" stroke="#EEA600" stroke-width="6" d="M0 26h105" clip-path="url(#z)" font-family="'Helvetica Neue'" font-size="21" text-rendering="optimizeSpeed" transform="translate(440 313)"/><text x="6" y="22" fill="#46443C" stroke="none" stroke-width="6" clip-path="url(#z)" font-family="'Helvetica Neue'" font-size="21" shape-rendering="crispEdges" text-rendering="geometricPrecision" transform="translate(440 313)">Locations</text><path fill="none" stroke="#EEA600" stroke-width="5" d="M0 27h69" clip-path="url(#m)" font-family="'Helvetica Neue'" font-size="21" text-rendering="optimizeSpeed" transform="translate(565 396)"/><text x="6" y="22" fill="#46443C" stroke="none" stroke-width="5" clip-path="url(#m)" font-family="'Helvetica Neue'" font-size="21" shape-rendering="crispEdges" text-rendering="geometricPrecision" transform="translate(565 396)">Drafts</text><path fill="none" stroke="#EEA600" stroke-width="5" d="M0 27h145" clip-path="url(#A)" font-family="'Helvetica Neue'" font-size="21" text-rendering="optimizeSpeed" transform="translate(565 363)"/><text x="6" y="22" fill="#46443C" stroke="none" stroke-width="5" clip-path="url(#A)" font-family="'Helvetica Neue'" font-size="21" shape-rendering="crispEdges" text-rendering="geometricPrecision" transform="translate(565 363)">iCloud photos</text><path fill="none" stroke="#EEA600" stroke-width="5" d="M0 27h90" clip-path="url(#B)" font-family="'Helvetica Neue'" font-size="21" text-rendering="optimizeSpeed" transform="translate(565 330)"/><text x="6" y="22" fill="#46443C" stroke="none" stroke-width="5" clip-path="url(#B)" font-family="'Helvetica Neue'" font-size="21" shape-rendering="crispEdges" text-rendering="geometricPrecision" transform="translate(565 330)">Moment</text><path fill="none" stroke="#EEA600" stroke-width="5" d="M0 27h103" clip-path="url(#x)" font-family="'Helvetica Neue'" font-size="21" text-rendering="optimizeSpeed" transform="translate(565 297)"/><text x="6" y="22" fill="#46443C" stroke="none" stroke-width="5" clip-path="url(#x)" font-family="'Helvetica Neue'" font-size="21" shape-rendering="crispEdges" text-rendering="geometricPrecision" transform="translate(565 297)">Workouts</text><path fill="none" stroke="#EEA600" stroke-width="5" d="M0 27h119" clip-path="url(#C)" font-family="'Helvetica Neue'" font-size="21" text-rendering="optimizeSpeed" transform="translate(565 264)"/><text x="6" y="22" fill="#46443C" stroke="none" stroke-width="5" clip-path="url(#C)" font-family="'Helvetica Neue'" font-size="21" shape-rendering="crispEdges" text-rendering="geometricPrecision" transform="translate(565 264)">Foursquare</text><path fill="none" stroke="#EEA600" stroke-width="5" d="M0 27h125" clip-path="url(#D)" font-family="'Helvetica Neue'" font-size="21" text-rendering="optimizeSpeed" transform="translate(565 231)"/><text x="6" y="22" fill="#46443C" stroke="none" stroke-width="5" clip-path="url(#D)" font-family="'Helvetica Neue'" font-size="21" shape-rendering="crispEdges" text-rendering="geometricPrecision" transform="translate(565 231)">TrackPoints</text><g fill="none" stroke="#EE685E" stroke-linecap="butt" stroke-width="5" font-family="'Lucida Grande'" font-size="13" text-rendering="optimizeSpeed"><path d="M128 92c12 0 1-15 21-15M128 92c12 0 1 18 21 18" clip-path="url(#E)" transform="translate(390 115)"/></g><path fill="none" stroke="#EE685E" stroke-width="6" d="M0 26h79" clip-path="url(#u)" font-family="'Helvetica Neue'" font-size="21" text-rendering="optimizeSpeed" transform="translate(440 181)"/><text x="6" y="22" fill="#46443C" stroke="none" stroke-width="6" clip-path="url(#u)" font-family="'Helvetica Neue'" font-size="21" shape-rendering="crispEdges" text-rendering="geometricPrecision" transform="translate(440 181)">Games</text><path fill="none" stroke="#EE685E" stroke-width="5" d="M0 27h128" clip-path="url(#i)" font-family="'Helvetica Neue'" font-size="21" text-rendering="optimizeSpeed" transform="translate(539 198)"/><text x="6" y="22" fill="#46443C" stroke="none" stroke-width="5" clip-path="url(#i)" font-family="'Helvetica Neue'" font-size="21" shape-rendering="crispEdges" text-rendering="geometricPrecision" transform="translate(539 198)">RescueTime</text><path fill="none" stroke="#EE685E" stroke-width="5" d="M0 27h73" clip-path="url(#q)" font-family="'Helvetica Neue'" font-size="21" text-rendering="optimizeSpeed" transform="translate(539 165)"/><text x="6" y="22" fill="#46443C" stroke="none" stroke-width="5" clip-path="url(#q)" font-family="'Helvetica Neue'" font-size="21" shape-rendering="crispEdges" text-rendering="geometricPrecision" transform="translate(539 165)">Steam</text><g fill="none" stroke="#259BBA" stroke-linecap="butt" stroke-width="5" font-family="'Lucida Grande'" font-size="13" text-rendering="optimizeSpeed"><path d="M118 92c12 0 1-15 21-15M118 92c12 0 1 18 21 18" clip-path="url(#F)" transform="translate(390 49)"/></g><path fill="none" stroke="#259BBA" stroke-width="6" d="M0 26h69" clip-path="url(#m)" font-family="'Helvetica Neue'" font-size="21" text-rendering="optimizeSpeed" transform="translate(440 115)"/><text x="6" y="22" fill="#46443C" stroke="none" stroke-width="6" clip-path="url(#m)" font-family="'Helvetica Neue'" font-size="21" shape-rendering="crispEdges" text-rendering="geometricPrecision" transform="translate(440 115)">Music</text><path fill="none" stroke="#259BBA" stroke-width="5" d="M0 27h79" clip-path="url(#u)" font-family="'Helvetica Neue'" font-size="21" text-rendering="optimizeSpeed" transform="translate(529 132)"/><text x="6" y="22" fill="#46443C" stroke="none" stroke-width="5" clip-path="url(#u)" font-family="'Helvetica Neue'" font-size="21" shape-rendering="crispEdges" text-rendering="geometricPrecision" transform="translate(529 132)">Spotify</text><path fill="none" stroke="#259BBA" stroke-width="5" d="M0 27h83" clip-path="url(#t)" font-family="'Helvetica Neue'" font-size="21" text-rendering="optimizeSpeed" transform="translate(529 99)"/><text x="6" y="22" fill="#46443C" stroke="none" stroke-width="5" clip-path="url(#t)" font-family="'Helvetica Neue'" font-size="21" shape-rendering="crispEdges" text-rendering="geometricPrecision" transform="translate(529 99)">LastFM</text><path fill="none" stroke="#35BAB1" stroke-linecap="butt" stroke-width="5" d="M118 78c12 0 1-1 21-1" clip-path="url(#G)" font-family="'Lucida Grande'" font-size="13" text-rendering="optimizeSpeed" transform="translate(390 14)"/><path fill="none" stroke="#35BAB1" stroke-width="6" d="M0 26h69" clip-path="url(#m)" font-family="'Helvetica Neue'" font-size="21" text-rendering="optimizeSpeed" transform="translate(440 66)"/><text x="6" y="22" fill="#46443C" stroke="none" stroke-width="6" clip-path="url(#m)" font-family="'Helvetica Neue'" font-size="21" shape-rendering="crispEdges" text-rendering="geometricPrecision" transform="translate(440 66)">Movie</text><path fill="none" stroke="#35BAB1" stroke-width="5" d="M0 27h64" clip-path="url(#H)" font-family="'Helvetica Neue'" font-size="21" text-rendering="optimizeSpeed" transform="translate(529 64)"/><text x="6" y="22" fill="#46443C" stroke="none" stroke-width="5" clip-path="url(#H)" font-family="'Helvetica Neue'" font-size="21" shape-rendering="crispEdges" text-rendering="geometricPrecision" transform="translate(529 64)">IMDB</text><path fill="none" stroke="#48B04B" stroke-linecap="butt" stroke-width="5" d="M121 78c12 0 1-1 21-1" clip-path="url(#I)" font-family="'Lucida Grande'" font-size="13" text-rendering="optimizeSpeed" transform="translate(390 -21)"/><path fill="none" stroke="#48B04B" stroke-width="6" d="M0 26h72" clip-path="url(#J)" font-family="'Helvetica Neue'" font-size="21" text-rendering="optimizeSpeed" transform="translate(440 31)"/><text x="6" y="22" fill="#46443C" stroke="none" stroke-width="6" clip-path="url(#J)" font-family="'Helvetica Neue'" font-size="21" shape-rendering="crispEdges" text-rendering="geometricPrecision" transform="translate(440 31)">Books</text><path fill="none" stroke="#48B04B" stroke-width="5" d="M0 27h116" clip-path="url(#h)" font-family="'Helvetica Neue'" font-size="21" text-rendering="optimizeSpeed" transform="translate(532 29)"/><text x="6" y="22" fill="#46443C" stroke="none" stroke-width="5" clip-path="url(#h)" font-family="'Helvetica Neue'" font-size="21" shape-rendering="crispEdges" text-rendering="geometricPrecision" transform="translate(532 29)">Goodreads</text></svg>