<svg version="1.1" width="500" height="1055" xmlns="http://www.w3.org/2000/svg">
<rect x="0" y="0" width="500" height="1055" fill="#666666" />
<g transform="scale(4.13223, 4.12109)">
<path d="M 23 96 L 30 271 L 136 109 Z" fill="#ffffff" fill-opacity="0.501961" />
<path d="M -16 3 L 136 132 L 121 -16 Z" fill="#000000" fill-opacity="0.501961" />
<path d="M 3 250 L -16 -12 L 51 1 Z" fill="#000000" fill-opacity="0.501961" />
<path d="M 116 115 L 21 100 L 55 271 Z" fill="#ffffff" fill-opacity="0.501961" />
<path d="M 92 260 L 136 253 L 119 92 Z" fill="#000000" fill-opacity="0.501961" />
<path d="M 36 -16 L -16 121 L 10 271 Z" fill="#000000" fill-opacity="0.501961" />
<path d="M 58 20 L 113 191 L 13 239 Z" fill="#e4e4e4" fill-opacity="0.501961" />
<path d="M 128 -5 L 136 175 L 59 -6 Z" fill="#000000" fill-opacity="0.501961" />
<path d="M 108 151 L 84 155 L 86 187 Z" fill="#151515" fill-opacity="0.501961" />
<path d="M 76 85 L 19 181 L 109 108 Z" fill="#ffffff" fill-opacity="0.501961" />
<path d="M 81 47 L 47 109 L 25 19 Z" fill="#838383" fill-opacity="0.501961" />
<path d="M -16 117 L -16 -13 L 50 94 Z" fill="#000000" fill-opacity="0.501961" />
<path d="M 67 93 L 136 66 L 102 -16 Z" fill="#000000" fill-opacity="0.501961" />
<path d="M -5 255 L -16 195 L 49 271 Z" fill="#000000" fill-opacity="0.501961" />
<path d="M 136 262 L 122 130 L 92 267 Z" fill="#000000" fill-opacity="0.501961" />
<path d="M 20 240 L 25 114 L 86 89 Z" fill="#ffffff" fill-opacity="0.501961" />
<path d="M 114 158 L 111 112 L 72 85 Z" fill="#ffffff" fill-opacity="0.501961" />
<path d="M 85 207 L 55 271 L 18 236 Z" fill="#d5d5d5" fill-opacity="0.501961" />
<path d="M 136 6 L 4 -16 L -16 45 Z" fill="#000000" fill-opacity="0.501961" />
<path d="M 70 217 L 112 206 L 111 156 Z" fill="#858585" fill-opacity="0.501961" />
<path d="M 136 2 L 90 -16 L 117 148 Z" fill="#000000" fill-opacity="0.501961" />
<path d="M 14 244 L -16 98 L 32 -16 Z" fill="#000000" fill-opacity="0.501961" />
<path d="M 33 71 L 73 32 L 29 29 Z" fill="#898989" fill-opacity="0.501961" />
<path d="M 21 141 L 42 95 L 26 104 Z" fill="#fbfbfb" fill-opacity="0.501961" />
<path d="M 104 -14 L 72 80 L 136 126 Z" fill="#000000" fill-opacity="0.501961" />
<path d="M 80 87 L 50 104 L 26 51 Z" fill="#727272" fill-opacity="0.501961" />
<path d="M 122 271 L 136 151 L 92 243 Z" fill="#000000" fill-opacity="0.501961" />
<path d="M 45 88 L -16 140 L -1 27 Z" fill="#000000" fill-opacity="0.501961" />
<path d="M 98 164 L 82 155 L 127 151 Z" fill="#121212" fill-opacity="0.501961" />
<path d="M 16 199 L 25 140 L -16 117 Z" fill="#000000" fill-opacity="0.501961" />
<path d="M 56 43 L 75 53 L 27 52 Z" fill="#2e2e2e" fill-opacity="0.501961" />
<path d="M 111 164 L 88 203 L 81 159 Z" fill="#999999" fill-opacity="0.501961" />
<path d="M -3 263 L 32 264 L 1 197 Z" fill="#000000" fill-opacity="0.501961" />
<path d="M 28 24 L 92 39 L 52 -12 Z" fill="#292929" fill-opacity="0.501961" />
<path d="M 60 95 L 58 54 L 80 50 Z" fill="#9d9d9d" fill-opacity="0.501961" />
<path d="M 111 203 L 87 253 L 47 271 Z" fill="#414141" fill-opacity="0.501961" />
<path d="M 88 93 L 113 151 L 40 152 Z" fill="#f8f8f8" fill-opacity="0.501961" />
<path d="M 71 76 L 120 117 L 115 -16 Z" fill="#000000" fill-opacity="0.501961" />
<path d="M 111 226 L 136 153 L 115 89 Z" fill="#000000" fill-opacity="0.501961" />
<path d="M 15 223 L 62 271 L 23 168 Z" fill="#cecece" fill-opacity="0.501961" />
<path d="M 56 102 L 68 90 L 47 102 Z" fill="#111111" fill-opacity="0.501961" />
<path d="M 13 241 L 72 271 L 5 271 Z" fill="#242424" fill-opacity="0.501961" />
<path d="M 43 46 L 35 34 L 62 33 Z" fill="#afafaf" fill-opacity="0.501961" />
<path d="M 71 70 L 46 100 L 74 86 Z" fill="#acacac" fill-opacity="0.501961" />
<path d="M 21 135 L 78 221 L 78 145 Z" fill="#ececec" fill-opacity="0.501961" />
<path d="M 81 87 L 102 104 L 31 117 Z" fill="#fdfdfd" fill-opacity="0.501961" />
<path d="M 46 93 L -16 105 L 0 15 Z" fill="#000000" fill-opacity="0.501961" />
<path d="M 21 239 L 55 240 L 31 250 Z" fill="#969696" fill-opacity="0.501961" />
<path d="M 22 165 L -16 64 L 3 270 Z" fill="#000000" fill-opacity="0.501961" />
<path d="M 136 197 L 136 241 L 77 268 Z" fill="#000000" fill-opacity="0.501961" />
<path d="M 95 -16 L 126 143 L 79 47 Z" fill="#000000" fill-opacity="0.501961" />
<path d="M 0 -15 L 38 83 L -1 156 Z" fill="#000000" fill-opacity="0.501961" />
<path d="M 30 99 L 54 104 L 21 187 Z" fill="#f2f2f2" fill-opacity="0.501961" />
<path d="M 22 235 L 79 201 L 72 238 Z" fill="#d3d3d3" fill-opacity="0.501961" />
<path d="M 86 191 L 112 176 L 101 223 Z" fill="#767676" fill-opacity="0.501961" />
<path d="M 39 -16 L 116 5 L -16 6 Z" fill="#000000" fill-opacity="0.501961" />
<path d="M 47 101 L 42 101 L 46 92 Z" fill="#0d0d0d" fill-opacity="0.501961" />
<path d="M 71 63 L 78 85 L 110 103 Z" fill="#000000" fill-opacity="0.501961" />
<path d="M 44 102 L 112 115 L 112 136 Z" fill="#f4f4f4" fill-opacity="0.501961" />
<path d="M 55 94 L 80 56 L 33 70 Z" fill="#8b8b8b" fill-opacity="0.501961" />
<path d="M 114 151 L 96 150 L 111 125 Z" fill="#fcfcfc" fill-opacity="0.501961" />
<path d="M 112 165 L 110 183 L 78 166 Z" fill="#a2a2a2" fill-opacity="0.501961" />
<path d="M 46 110 L 27 106 L 40 95 Z" fill="#e8e8e8" fill-opacity="0.501961" />
<path d="M 87 153 L 81 135 L 82 163 Z" fill="#ababab" fill-opacity="0.501961" />
<path d="M 68 94 L 96 60 L 114 65 Z" fill="#010101" fill-opacity="0.501961" />
<path d="M 32 42 L 22 54 L 73 49 Z" fill="#3c3c3c" fill-opacity="0.501961" />
<path d="M 45 83 L 22 103 L 45 92 Z" fill="#000000" fill-opacity="0.501961" />
<path d="M 21 135 L 74 173 L 40 103 Z" fill="#f3f3f3" fill-opacity="0.501961" />
<path d="M 69 61 L 72 38 L 62 28 Z" fill="#7b7b7b" fill-opacity="0.501961" />
<path d="M 28 78 L -16 -11 L 31 -16 Z" fill="#000000" fill-opacity="0.501961" />
<path d="M 15 213 L 22 204 L 18 191 Z" fill="#565656" fill-opacity="0.501961" />
<path d="M 26 61 L 23 128 L -15 184 Z" fill="#000000" fill-opacity="0.501961" />
<path d="M 23 155 L 80 160 L 21 206 Z" fill="#e6e6e6" fill-opacity="0.501961" />
<path d="M 119 186 L 94 242 L 126 271 Z" fill="#000000" fill-opacity="0.501961" />
<path d="M 43 52 L 42 61 L 49 62 Z" fill="#c7c7c7" fill-opacity="0.501961" />
<path d="M 72 228 L 111 197 L 97 232 Z" fill="#646464" fill-opacity="0.501961" />
<path d="M 104 217 L 64 245 L 84 248 Z" fill="#525252" fill-opacity="0.501961" />
<path d="M 118 189 L 136 136 L 110 68 Z" fill="#000000" fill-opacity="0.501961" />
<path d="M 79 29 L 28 30 L 35 8 Z" fill="#2d2d2d" fill-opacity="0.501961" />
<path d="M 94 238 L 85 256 L 93 250 Z" fill="#adadad" fill-opacity="0.501961" />
<path d="M 136 -11 L 136 122 L 64 -8 Z" fill="#000000" fill-opacity="0.501961" />
<path d="M 98 236 L 72 267 L 65 251 Z" fill="#373737" fill-opacity="0.501961" />
<path d="M 79 85 L 73 66 L 104 34 Z" fill="#000000" fill-opacity="0.501961" />
<path d="M 23 244 L 13 228 L 10 256 Z" fill="#303030" fill-opacity="0.501961" />
<path d="M 35 51 L 30 62 L 42 82 Z" fill="#878787" fill-opacity="0.501961" />
<path d="M 50 90 L 73 72 L 47 82 Z" fill="#666666" fill-opacity="0.501961" />
<path d="M 96 171 L 72 214 L 104 196 Z" fill="#8d8d8d" fill-opacity="0.501961" />
<path d="M 115 159 L 83 155 L 82 165 Z" fill="#4c4c4c" fill-opacity="0.501961" />
<path d="M 18 235 L 69 225 L 18 208 Z" fill="#c9c9c9" fill-opacity="0.501961" />
<path d="M 100 167 L 82 160 L 84 188 Z" fill="#acacac" fill-opacity="0.501961" />
<path d="M 15 203 L 24 143 L -16 199 Z" fill="#000000" fill-opacity="0.501961" />
<path d="M 47 88 L 49 98 L 72 86 Z" fill="#a4a4a4" fill-opacity="0.501961" />
<path d="M 66 50 L 81 26 L 78 46 Z" fill="#414141" fill-opacity="0.501961" />
<path d="M 89 158 L 115 160 L 112 151 Z" fill="#363636" fill-opacity="0.501961" />
<path d="M 63 42 L 37 43 L 33 28 Z" fill="#949494" fill-opacity="0.501961" />
<path d="M 52 164 L 70 226 L 29 207 Z" fill="#e5e5e5" fill-opacity="0.501961" />
<path d="M 43 237 L 24 217 L 28 237 Z" fill="#e8e8e8" fill-opacity="0.501961" />
<path d="M 76 49 L 70 65 L 79 56 Z" fill="#aaaaaa" fill-opacity="0.501961" />
<path d="M 67 65 L 39 80 L 54 81 Z" fill="#a0a0a0" fill-opacity="0.501961" />
<path d="M 80 202 L 61 216 L 80 217 Z" fill="#bdbdbd" fill-opacity="0.501961" />
<path d="M 15 18 L 65 -2 L -16 -1 Z" fill="#000000" fill-opacity="0.501961" />
<path d="M 71 9 L 41 33 L 79 21 Z" fill="#282828" fill-opacity="0.501961" />
<path d="M 110 110 L 86 -16 L 79 70 Z" fill="#000000" fill-opacity="0.501961" />
<path d="M -16 199 L 6 271 L 23 146 Z" fill="#000000" fill-opacity="0.501961" />
<path d="M 29 249 L 56 260 L 16 227 Z" fill="#a8a8a8" fill-opacity="0.501961" />
<path d="M 66 249 L 71 256 L 62 264 Z" fill="#0a0a0a" fill-opacity="0.501961" />
<path d="M 15 242 L 8 265 L 67 271 Z" fill="#1e1e1e" fill-opacity="0.501961" />
<path d="M 111 176 L 112 199 L 93 214 Z" fill="#676767" fill-opacity="0.501961" />
<path d="M 44 94 L 27 120 L 28 102 Z" fill="#e2e2e2" fill-opacity="0.501961" />
<path d="M 38 10 L 64 8 L 52 5 Z" fill="#444444" fill-opacity="0.501961" />
<path d="M 51 243 L 32 245 L 66 271 Z" fill="#c8c8c8" fill-opacity="0.501961" />
<path d="M 36 69 L 48 70 L 37 72 Z" fill="#484848" fill-opacity="0.501961" />
<path d="M 112 115 L 91 95 L 46 114 Z" fill="#f8f8f8" fill-opacity="0.501961" />
<path d="M 75 83 L 44 62 L 67 62 Z" fill="#959595" fill-opacity="0.501961" />
<path d="M 67 90 L 65 95 L 74 88 Z" fill="#2b2b2b" fill-opacity="0.501961" />
<path d="M 68 55 L 49 63 L 47 50 Z" fill="#797979" fill-opacity="0.501961" />
<path d="M 75 85 L 70 76 L 60 91 Z" fill="#b0b0b0" fill-opacity="0.501961" />
<path d="M 17 112 L 30 62 L 33 97 Z" fill="#000000" fill-opacity="0.501961" />
<path d="M 89 186 L 72 251 L 91 226 Z" fill="#6d6d6d" fill-opacity="0.501961" />
<path d="M 67 222 L 81 212 L 75 224 Z" fill="#e6e6e6" fill-opacity="0.501961" />
<path d="M 113 68 L 92 94 L 84 89 Z" fill="#000000" fill-opacity="0.501961" />
<path d="M 46 -2 L 136 -2 L 95 21 Z" fill="#000000" fill-opacity="0.501961" />
<path d="M 114 151 L 85 150 L 111 116 Z" fill="#f0f0f0" fill-opacity="0.501961" />
<path d="M 87 266 L 136 141 L 136 271 Z" fill="#000000" fill-opacity="0.501961" />
<path d="M 55 102 L 73 93 L 111 149 Z" fill="#f6f6f6" fill-opacity="0.501961" />
<path d="M 29 113 L 47 101 L 74 135 Z" fill="#f4f4f4" fill-opacity="0.501961" />
<path d="M 63 30 L 53 48 L 70 45 Z" fill="#808080" fill-opacity="0.501961" />
<path d="M 84 177 L 42 188 L 70 133 Z" fill="#ebebeb" fill-opacity="0.501961" />
<path d="M 24 218 L 41 211 L 76 233 Z" fill="#c5c5c5" fill-opacity="0.501961" />
<path d="M 46 30 L 29 23 L 30 30 Z" fill="#484848" fill-opacity="0.501961" />
<path d="M 136 128 L 78 45 L 118 -16 Z" fill="#000000" fill-opacity="0.501961" />
<path d="M 30 57 L 30 46 L 36 58 Z" fill="#898989" fill-opacity="0.501961" />
<path d="M 48 46 L 38 60 L 42 49 Z" fill="#3c3c3c" fill-opacity="0.501961" />
<path d="M 60 56 L 48 55 L 54 59 Z" fill="#a9a9a9" fill-opacity="0.501961" />
<path d="M 66 96 L 75 88 L 56 96 Z" fill="#3f3f3f" fill-opacity="0.501961" />
<path d="M 112 191 L 136 214 L 118 130 Z" fill="#000000" fill-opacity="0.501961" />
<path d="M 73 236 L 43 231 L 58 243 Z" fill="#d9d9d9" fill-opacity="0.501961" />
<path d="M 22 49 L 29 43 L 44 48 Z" fill="#373737" fill-opacity="0.501961" />
<path d="M 32 38 L 44 31 L 46 48 Z" fill="#888888" fill-opacity="0.501961" />
<path d="M 73 107 L 99 101 L 112 113 Z" fill="#f5f5f5" fill-opacity="0.501961" />
<path d="M 47 241 L 65 249 L 65 243 Z" fill="#aaaaaa" fill-opacity="0.501961" />
<path d="M 99 164 L 112 162 L 95 199 Z" fill="#929292" fill-opacity="0.501961" />
<path d="M 74 145 L 88 152 L 83 144 Z" fill="#c7c7c7" fill-opacity="0.501961" />
<path d="M 73 70 L 76 85 L 116 95 Z" fill="#000000" fill-opacity="0.501961" />
<path d="M 102 220 L 72 255 L 68 243 Z" fill="#565656" fill-opacity="0.501961" />
<path d="M 0 204 L -2 -16 L 29 93 Z" fill="#000000" fill-opacity="0.501961" />
<path d="M 14 220 L 17 237 L 12 237 Z" fill="#3c3c3c" fill-opacity="0.501961" />
<path d="M 46 88 L 13 54 L 12 113 Z" fill="#000000" fill-opacity="0.501961" />
<path d="M 22 236 L 43 241 L 28 247 Z" fill="#9c9c9c" fill-opacity="0.501961" />
<path d="M 47 42 L 62 40 L 53 32 Z" fill="#a5a5a5" fill-opacity="0.501961" />
<path d="M 25 143 L 22 138 L 19 140 Z" fill="#515151" fill-opacity="0.501961" />
<path d="M 57 57 L 69 50 L 73 71 Z" fill="#8b8b8b" fill-opacity="0.501961" />
<path d="M 88 149 L 78 164 L 81 130 Z" fill="#d5d5d5" fill-opacity="0.501961" />
<path d="M 95 98 L 66 96 L 28 142 Z" fill="#f6f6f6" fill-opacity="0.501961" />
<path d="M 74 32 L 75 50 L 66 31 Z" fill="#414141" fill-opacity="0.501961" />
<path d="M 35 16 L 56 6 L 74 32 Z" fill="#1f1f1f" fill-opacity="0.501961" />
<path d="M 46 52 L 49 62 L 55 62 Z" fill="#5b5b5b" fill-opacity="0.501961" />
<path d="M 65 231 L 97 206 L 93 220 Z" fill="#767676" fill-opacity="0.501961" />
<path d="M 21 171 L 21 182 L 31 168 Z" fill="#cecece" fill-opacity="0.501961" />
<path d="M 100 202 L 87 208 L 89 175 Z" fill="#888888" fill-opacity="0.501961" />
<path d="M 48 85 L 43 77 L 35 75 Z" fill="#8c8c8c" fill-opacity="0.501961" />
<path d="M 19 209 L 47 215 L 39 183 Z" fill="#dcdcdc" fill-opacity="0.501961" />
<path d="M 112 127 L 113 130 L 113 124 Z" fill="#3a3a3a" fill-opacity="0.501961" />
<path d="M 83 241 L 92 242 L 101 225 Z" fill="#424242" fill-opacity="0.501961" />
<path d="M 59 228 L 68 240 L 74 231 Z" fill="#d2d2d2" fill-opacity="0.501961" />
<path d="M 34 248 L 48 254 L 61 248 Z" fill="#b1b1b1" fill-opacity="0.501961" />
<path d="M 58 199 L 28 181 L 25 124 Z" fill="#e9e9e9" fill-opacity="0.501961" />
<path d="M 72 179 L 85 199 L 78 152 Z" fill="#dfdfdf" fill-opacity="0.501961" />
<path d="M 67 268 L 43 251 L 60 251 Z" fill="#d7d7d7" fill-opacity="0.501961" />
<path d="M 32 15 L 36 17 L 35 13 Z" fill="#545454" fill-opacity="0.501961" />
<path d="M 62 69 L 47 69 L 69 53 Z" fill="#9e9e9e" fill-opacity="0.501961" />
<path d="M 111 152 L 89 154 L 88 161 Z" fill="#373737" fill-opacity="0.501961" />
<path d="M 15 212 L 19 206 L 15 218 Z" fill="#4b4b4b" fill-opacity="0.501961" />
<path d="M 48 92 L 42 101 L 43 96 Z" fill="#474747" fill-opacity="0.501961" />
<path d="M 83 153 L 86 165 L 81 167 Z" fill="#8a8a8a" fill-opacity="0.501961" />
<path d="M 108 63 L 73 63 L 88 76 Z" fill="#000000" fill-opacity="0.501961" />
<path d="M 58 229 L 48 236 L 33 233 Z" fill="#e3e3e3" fill-opacity="0.501961" />
<path d="M 99 153 L 85 152 L 83 139 Z" fill="#e9e9e9" fill-opacity="0.501961" />
<path d="M 42 96 L 34 138 L 24 129 Z" fill="#eaeaea" fill-opacity="0.501961" />
<path d="M 110 271 L 94 240 L 136 184 Z" fill="#000000" fill-opacity="0.501961" />
<path d="M 62 45 L 61 56 L 57 47 Z" fill="#484848" fill-opacity="0.501961" />
<path d="M 113 115 L 136 144 L 119 190 Z" fill="#000000" fill-opacity="0.501961" />
<path d="M 51 112 L 79 88 L 90 96 Z" fill="#f6f6f6" fill-opacity="0.501961" />
<path d="M 49 85 L 45 84 L 50 95 Z" fill="#8f8f8f" fill-opacity="0.501961" />
<path d="M 70 70 L 71 79 L 55 79 Z" fill="#7e7e7e" fill-opacity="0.501961" />
<path d="M 47 229 L 47 225 L 60 226 Z" fill="#b0b0b0" fill-opacity="0.501961" />
<path d="M 36 148 L 68 123 L 61 176 Z" fill="#f3f3f3" fill-opacity="0.501961" />
<path d="M 86 156 L 88 158 L 85 162 Z" fill="#343434" fill-opacity="0.501961" />
<path d="M 67 52 L 79 50 L 66 63 Z" fill="#818181" fill-opacity="0.501961" />
<path d="M 22 197 L 17 233 L 29 213 Z" fill="#c8c8c8" fill-opacity="0.501961" />
<path d="M 28 21 L -16 22 L 55 -16 Z" fill="#000000" fill-opacity="0.501961" />
<path d="M 44 91 L 46 94 L 43 101 Z" fill="#323232" fill-opacity="0.501961" />
<path d="M 70 47 L 60 47 L 57 33 Z" fill="#828282" fill-opacity="0.501961" />
<path d="M 41 29 L 38 37 L 28 39 Z" fill="#707070" fill-opacity="0.501961" />
<path d="M 51 88 L 64 77 L 49 83 Z" fill="#5f5f5f" fill-opacity="0.501961" />
<path d="M -16 223 L 9 271 L 12 130 Z" fill="#000000" fill-opacity="0.501961" />
<path d="M 69 78 L 49 89 L 47 102 Z" fill="#969696" fill-opacity="0.501961" />
<path d="M 49 70 L 52 71 L 53 68 Z" fill="#575757" fill-opacity="0.501961" />
<path d="M 14 212 L -16 148 L 23 144 Z" fill="#000000" fill-opacity="0.501961" />
<path d="M 64 -16 L 107 14 L 42 2 Z" fill="#000000" fill-opacity="0.501961" />
<path d="M 23 74 L 30 69 L 29 49 Z" fill="#020202" fill-opacity="0.501961" />
<path d="M 60 69 L 49 61 L 47 69 Z" fill="#9b9b9b" fill-opacity="0.501961" />
<path d="M 11 100 L 33 72 L 46 91 Z" fill="#000000" fill-opacity="0.501961" />
<path d="M 101 198 L 111 176 L 102 177 Z" fill="#818181" fill-opacity="0.501961" />
<path d="M 30 20 L 29 34 L 38 15 Z" fill="#2a2a2a" fill-opacity="0.501961" />
<path d="M 99 271 L 93 250 L 85 262 Z" fill="#2a2a2a" fill-opacity="0.501961" />
<path d="M 46 24 L 43 31 L 70 28 Z" fill="#303030" fill-opacity="0.501961" />
<path d="M 45 249 L 58 246 L 36 245 Z" fill="#d8d8d8" fill-opacity="0.501961" />
<path d="M 44 8 L 76 14 L 80 41 Z" fill="#232323" fill-opacity="0.501961" />
<path d="M 105 152 L 92 151 L 103 104 Z" fill="#f4f4f4" fill-opacity="0.501961" />
<path d="M 106 210 L 76 226 L 77 239 Z" fill="#616161" fill-opacity="0.501961" />
<path d="M 40 112 L 41 95 L 24 113 Z" fill="#e7e7e7" fill-opacity="0.501961" />
<path d="M 50 44 L 68 48 L 47 50 Z" fill="#424242" fill-opacity="0.501961" />
<path d="M 56 238 L 72 229 L 60 247 Z" fill="#cfcfcf" fill-opacity="0.501961" />
<path d="M 17 180 L 20 171 L 21 181 Z" fill="#121212" fill-opacity="0.501961" />
<path d="M 82 27 L 80 30 L 80 33 Z" fill="#5e5e5e" fill-opacity="0.501961" />
<path d="M 112 120 L 113 141 L 107 128 Z" fill="#e0e0e0" fill-opacity="0.501961" />
<path d="M 80 53 L 74 50 L 70 68 Z" fill="#959595" fill-opacity="0.501961" />
<path d="M 136 133 L 93 92 L 80 15 Z" fill="#000000" fill-opacity="0.501961" />
<path d="M 82 210 L 78 221 L 78 198 Z" fill="#acacac" fill-opacity="0.501961" />
<path d="M 63 35 L 38 40 L 54 42 Z" fill="#a3a3a3" fill-opacity="0.501961" />
<path d="M 11 271 L 42 271 L 12 228 Z" fill="#232323" fill-opacity="0.501961" />
<path d="M 50 59 L 48 55 L 57 59 Z" fill="#a5a5a5" fill-opacity="0.501961" />
<path d="M 20 204 L 17 198 L 16 210 Z" fill="#575757" fill-opacity="0.501961" />
<path d="M 103 90 L 126 102 L 109 110 Z" fill="#000000" fill-opacity="0.501961" />
<path d="M 30 42 L 42 54 L 30 50 Z" fill="#565656" fill-opacity="0.501961" />
<path d="M 21 200 L 19 189 L 16 211 Z" fill="#676767" fill-opacity="0.501961" />
<path d="M 46 65 L 51 60 L 52 62 Z" fill="#646464" fill-opacity="0.501961" />
<path d="M 20 152 L 20 141 L 24 140 Z" fill="#141414" fill-opacity="0.501961" />
<path d="M 41 9 L 30 22 L 33 14 Z" fill="#3f3f3f" fill-opacity="0.501961" />
<path d="M 0 271 L 22 251 L 39 255 Z" fill="#202020" fill-opacity="0.501961" />
<path d="M 26 201 L 19 228 L 17 215 Z" fill="#cfcfcf" fill-opacity="0.501961" />
<path d="M 24 153 L 31 151 L 27 172 Z" fill="#dfdfdf" fill-opacity="0.501961" />
<path d="M 52 239 L 36 238 L 42 244 Z" fill="#a6a6a6" fill-opacity="0.501961" />
<path d="M 40 62 L 43 63 L 45 55 Z" fill="#b0b0b0" fill-opacity="0.501961" />
<path d="M 21 176 L 20 202 L 26 197 Z" fill="#c4c4c4" fill-opacity="0.501961" />
<path d="M 72 271 L 91 248 L 82 271 Z" fill="#a2a2a2" fill-opacity="0.501961" />
<path d="M 70 93 L 79 87 L 75 84 Z" fill="#5f5f5f" fill-opacity="0.501961" />
<path d="M 71 224 L 58 220 L 76 218 Z" fill="#e9e9e9" fill-opacity="0.501961" />
<path d="M 41 67 L 49 63 L 40 64 Z" fill="#606060" fill-opacity="0.501961" />
<path d="M -16 53 L 27 -4 L 29 44 Z" fill="#000000" fill-opacity="0.501961" />
<path d="M 79 48 L 68 55 L 79 52 Z" fill="#838383" fill-opacity="0.501961" />
<path d="M 51 226 L 65 216 L 27 222 Z" fill="#cdcdcd" fill-opacity="0.501961" />
<path d="M 16 229 L 25 234 L 30 248 Z" fill="#a6a6a6" fill-opacity="0.501961" />
<path d="M 32 62 L 44 63 L 34 67 Z" fill="#8a8a8a" fill-opacity="0.501961" />
<path d="M 72 184 L 43 211 L 65 204 Z" fill="#dedede" fill-opacity="0.501961" />
<path d="M 40 81 L 44 83 L 41 72 Z" fill="#848484" fill-opacity="0.501961" />
<path d="M 23 146 L -16 95 L 15 206 Z" fill="#000000" fill-opacity="0.501961" />
<path d="M 118 175 L 115 188 L 113 165 Z" fill="#000000" fill-opacity="0.501961" />
<path d="M 77 147 L 78 144 L 69 143 Z" fill="#cdcdcd" fill-opacity="0.501961" />
<path d="M 80 25 L 79 20 L 77 29 Z" fill="#3c3c3c" fill-opacity="0.501961" />
<path d="M 72 84 L 66 90 L 64 81 Z" fill="#b3b3b3" fill-opacity="0.501961" />
<path d="M 104 163 L 110 158 L 94 161 Z" fill="#585858" fill-opacity="0.501961" />
<path d="M 46 48 L 37 50 L 36 44 Z" fill="#363636" fill-opacity="0.501961" />
<path d="M 100 164 L 96 183 L 93 165 Z" fill="#a4a4a4" fill-opacity="0.501961" />
<path d="M 85 191 L 74 204 L 81 167 Z" fill="#e0e0e0" fill-opacity="0.501961" />
<path d="M 13 149 L 22 127 L 17 101 Z" fill="#000000" fill-opacity="0.501961" />
<path d="M 70 50 L 71 48 L 76 54 Z" fill="#515151" fill-opacity="0.501961" />
<path d="M 136 2 L 91 67 L 73 -16 Z" fill="#000000" fill-opacity="0.501961" />
<path d="M 45 248 L 53 250 L 42 251 Z" fill="#a4a4a4" fill-opacity="0.501961" />
<path d="M 24 123 L 39 123 L 28 106 Z" fill="#f1f1f1" fill-opacity="0.501961" />
<path d="M 74 36 L 77 45 L 65 30 Z" fill="#484848" fill-opacity="0.501961" />
<path d="M 107 57 L 79 58 L 86 28 Z" fill="#000000" fill-opacity="0.501961" />
<path d="M 30 181 L 68 176 L 41 139 Z" fill="#ececec" fill-opacity="0.501961" />
<path d="M 73 70 L 103 68 L 75 82 Z" fill="#000000" fill-opacity="0.501961" />
<path d="M 85 193 L 84 200 L 76 205 Z" fill="#b4b4b4" fill-opacity="0.501961" />
<path d="M 69 69 L 54 68 L 44 60 Z" fill="#9b9b9b" fill-opacity="0.501961" />
<path d="M 82 170 L 86 169 L 83 157 Z" fill="#848484" fill-opacity="0.501961" />
<path d="M 57 99 L 63 96 L 63 93 Z" fill="#3f3f3f" fill-opacity="0.501961" />
<path d="M 15 222 L 28 231 L 20 219 Z" fill="#c5c5c5" fill-opacity="0.501961" />
<path d="M 82 144 L 37 125 L 65 96 Z" fill="#f6f6f6" fill-opacity="0.501961" />
<path d="M 79 47 L 122 52 L 87 8 Z" fill="#000000" fill-opacity="0.501961" />
<path d="M 77 115 L 72 141 L 97 118 Z" fill="#eeeeee" fill-opacity="0.501961" />
<path d="M 50 83 L 67 70 L 44 72 Z" fill="#939393" fill-opacity="0.501961" />
<path d="M 26 126 L 22 134 L 34 137 Z" fill="#e9e9e9" fill-opacity="0.501961" />
<path d="M 48 44 L 40 46 L 46 47 Z" fill="#717171" fill-opacity="0.501961" />
<path d="M 61 -7 L -7 -16 L 6 31 Z" fill="#000000" fill-opacity="0.501961" />
<path d="M 105 96 L 136 104 L 116 122 Z" fill="#000000" fill-opacity="0.501961" />
<path d="M 112 146 L 106 108 L 85 93 Z" fill="#f4f4f4" fill-opacity="0.501961" />
<path d="M 90 253 L 87 258 L 91 265 Z" fill="#222222" fill-opacity="0.501961" />
<path d="M 48 239 L 67 247 L 62 251 Z" fill="#aeaeae" fill-opacity="0.501961" />
<path d="M 28 103 L 39 102 L 40 97 Z" fill="#d6d6d6" fill-opacity="0.501961" />
<path d="M 102 94 L 104 104 L 98 92 Z" fill="#010101" fill-opacity="0.501961" />
<path d="M 73 72 L 70 50 L 65 61 Z" fill="#848484" fill-opacity="0.501961" />
<path d="M 34 28 L 33 33 L 32 29 Z" fill="#6f6f6f" fill-opacity="0.501961" />
<path d="M 20 238 L 27 244 L 44 241 Z" fill="#999999" fill-opacity="0.501961" />
<path d="M 38 76 L 51 77 L 45 74 Z" fill="#737373" fill-opacity="0.501961" />
<path d="M 94 203 L 85 196 L 80 219 Z" fill="#808080" fill-opacity="0.501961" />
<path d="M 109 172 L 92 204 L 92 185 Z" fill="#8f8f8f" fill-opacity="0.501961" />
<path d="M -11 43 L 33 74 L 17 23 Z" fill="#000000" fill-opacity="0.501961" />
<path d="M 27 213 L 22 218 L 38 224 Z" fill="#c1c1c1" fill-opacity="0.501961" />
<path d="M 64 31 L 65 41 L 51 33 Z" fill="#8a8a8a" fill-opacity="0.501961" />
<path d="M 121 271 L 104 218 L 136 159 Z" fill="#000000" fill-opacity="0.501961" />
<path d="M 50 71 L 51 76 L 38 71 Z" fill="#909090" fill-opacity="0.501961" />
<path d="M 72 239 L 78 249 L 68 252 Z" fill="#585858" fill-opacity="0.501961" />
<path d="M 78 133 L 81 143 L 64 129 Z" fill="#eaeaea" fill-opacity="0.501961" />
<path d="M 100 196 L 96 218 L 110 194 Z" fill="#666666" fill-opacity="0.501961" />
<path d="M 65 10 L 66 7 L 61 7 Z" fill="#5a5a5a" fill-opacity="0.501961" />
<path d="M 132 -3 L 52 -6 L 85 21 Z" fill="#000000" fill-opacity="0.501961" />
<path d="M 49 8 L 80 28 L 34 17 Z" fill="#1f1f1f" fill-opacity="0.501961" />
<path d="M 66 60 L 69 69 L 42 68 Z" fill="#999999" fill-opacity="0.501961" />
<path d="M 72 217 L 59 218 L 83 196 Z" fill="#c8c8c8" fill-opacity="0.501961" />
<path d="M 108 153 L 110 162 L 115 156 Z" fill="#3f3f3f" fill-opacity="0.501961" />
<path d="M 46 58 L 43 53 L 44 58 Z" fill="#b1b1b1" fill-opacity="0.501961" />
<path d="M 82 31 L 80 29 L 80 26 Z" fill="#727272" fill-opacity="0.501961" />
<path d="M 110 122 L 92 152 L 112 150 Z" fill="#f0f0f0" fill-opacity="0.501961" />
<path d="M 60 30 L 42 10 L 66 9 Z" fill="#212121" fill-opacity="0.501961" />
<path d="M 47 44 L 54 43 L 50 53 Z" fill="#4d4d4d" fill-opacity="0.501961" />
<path d="M 80 33 L 77 17 L 66 9 Z" fill="#272727" fill-opacity="0.501961" />
<path d="M 15 210 L 2 271 L -12 234 Z" fill="#000000" fill-opacity="0.501961" />
<path d="M 64 163 L 71 168 L 48 166 Z" fill="#e2e2e2" fill-opacity="0.501961" />
<path d="M 79 169 L 83 164 L 82 157 Z" fill="#c1c1c1" fill-opacity="0.501961" />
<path d="M 48 81 L 54 74 L 42 78 Z" fill="#9f9f9f" fill-opacity="0.501961" />
<path d="M 47 0 L 67 8 L 92 -1 Z" fill="#000000" fill-opacity="0.501961" />
<path d="M 86 173 L 85 178 L 81 168 Z" fill="#bcbcbc" fill-opacity="0.501961" />
<path d="M 58 59 L 60 52 L 60 57 Z" fill="#6d6d6d" fill-opacity="0.501961" />
<path d="M 74 225 L 54 232 L 65 232 Z" fill="#bebebe" fill-opacity="0.501961" />
<path d="M 68 232 L 53 232 L 52 238 Z" fill="#dddddd" fill-opacity="0.501961" />
<path d="M 65 231 L 64 227 L 51 231 Z" fill="#dcdcdc" fill-opacity="0.501961" />
<path d="M 49 208 L 55 216 L 71 205 Z" fill="#e8e8e8" fill-opacity="0.501961" />
</g>
</svg>
